<svg width="56" height="61" viewBox="0 0 56 61" fill="none" xmlns="http://www.w3.org/2000/svg">
<path d="M1.60039 0.316406C0.878516 0.316406 0.400391 0.794532 0.400391 1.51641V59.1164C0.400391 59.8383 0.878516 60.3164 1.60039 60.3164H6.40039C7.12227 60.3164 7.60039 59.8383 7.60039 59.1164V38.7164H54.4004C55.0613 38.7164 55.6004 38.1773 55.6004 37.5164V1.51641C55.6004 0.855469 55.0613 0.316406 54.4004 0.316406H1.60039ZM7.60039 2.71641H18.4004V13.5164H30.4004V2.71641H42.4004V13.5164H53.2004V25.5164H42.4004V36.3164H30.4004V25.5164H18.4004V36.3164H7.60039V25.5164H18.4004V13.5164H7.60039V2.71641ZM30.4004 25.5164H42.4004V13.5164H30.4004V25.5164Z" fill="white"/>
</svg>
