<svg width="801" height="389" viewBox="0 0 801 389" fill="none" xmlns="http://www.w3.org/2000/svg">
<g filter="url(#filter0_d_1_57)">
<path fill-rule="evenodd" clip-rule="evenodd" d="M86.1213 180.014C41.9894 180.419 7.38064 218.028 10.6379 262.042C13.4594 300.168 43.8036 329.681 80.7802 332.568C79.1567 341.642 75.8559 352.349 73.0105 361.578C71.3037 367.115 69.7606 372.12 68.8418 375.922C67.0115 383.496 77.9622 373.98 93.4273 360.541C104.834 350.628 118.696 338.582 131.698 329.685L491.531 303.055C526.894 300.438 553.248 269.344 550.032 234.03C547.036 201.132 519.299 176.038 486.266 176.341L86.1213 180.014Z" fill="#9DA4FF"/>
</g>
<path d="M48.2691 268.443L48.098 265.528L53.1294 265.233L53.3005 268.148L48.2691 268.443ZM47.8144 260.697L52.8458 260.401L53.0145 263.276L47.9832 263.572L47.8144 260.697ZM60.7522 259.937L60.9209 262.812L55.6899 263.119L55.5212 260.244L60.7522 259.937ZM61.2069 267.684L55.9759 267.991L55.8048 265.076L61.0358 264.769L61.2069 267.684ZM70.9963 254.928C70.9121 252.128 70.7386 249.174 70.5628 246.179L67.7676 246.343C67.9458 249.378 68.1169 252.293 68.2011 255.092L63.4493 255.371L63.6133 258.167L68.2853 257.892C68.3665 265.42 67.7057 271.91 64.5082 276.826L64.4965 276.626C61.8399 277.103 59.141 277.542 56.5595 277.934L56.3743 274.779L64.2009 274.32L64.0673 272.044L56.2407 272.503L56.0978 270.067L63.8444 269.613L63.1483 257.753L55.4016 258.208L55.254 255.692L63.7194 255.195L63.5835 252.879L55.118 253.376L54.9469 250.461C57.8432 249.971 60.5374 249.452 62.6656 248.846L61.0545 246.657C56.9955 247.816 49.8501 248.957 43.959 249.623C44.3136 250.204 44.6494 251.146 44.8066 251.778C47.1579 251.559 49.7441 251.247 52.2879 250.898L52.4426 253.533L43.8175 254.039L43.9534 256.355L52.5786 255.849L52.7262 258.365L45.2591 258.803L45.9552 270.663L53.4224 270.224L53.5653 272.66L46.0183 273.103L46.1519 275.379L53.6989 274.936L53.9005 278.37C50.6449 278.882 47.6664 279.337 45.2823 279.678L45.8739 282.247C50.3181 281.506 56.4676 280.464 62.4949 279.389C61.964 279.9 61.4331 280.412 60.82 280.889C61.5669 281.326 62.6637 282.264 63.1404 282.877C69.8589 277.193 71.1848 268.38 71.0405 257.731L76.7507 257.395C77.2022 271.914 77.0324 277.213 76.182 278.425C75.8131 278.967 75.4608 279.108 74.782 279.148C74.0233 279.193 72.2639 279.256 70.3379 279.209C70.8216 279.942 71.2137 281.161 71.3405 281.955C73.1844 281.967 75.0635 281.896 76.1722 281.671C77.3631 281.481 78.143 281.115 78.7608 280.037C80.0201 278.28 80.0537 272.708 79.5108 255.951C79.4874 255.552 79.4617 254.431 79.4617 254.431L70.9963 254.928ZM85.784 280.225L121.403 278.135L121.278 276.018L85.6597 278.109L85.784 280.225ZM113.497 269.062L104.233 269.606L104.114 267.569L113.378 267.026L113.497 269.062ZM113.72 272.856L104.456 273.399L104.332 271.283L113.596 270.739L113.72 272.856ZM92.7119 271.965L101.577 271.445L101.701 273.561L92.8361 274.082L92.7119 271.965ZM92.4939 268.252L101.359 267.731L101.478 269.768L92.6134 270.288L92.4939 268.252ZM89.558 266.701L90.1018 275.965L116.816 274.397L116.272 265.133L89.558 266.701ZM103.28 251.992L112.424 251.455L112.553 253.651L103.409 254.188L103.28 251.992ZM103.05 248.078L112.194 247.542L112.314 249.578L103.17 250.115L103.05 248.078ZM103.868 262.014L103.746 259.938L117.403 259.136L117.292 257.26L103.636 258.061L103.516 256.025L115.616 255.314L115.379 251.281L119.691 251.028L119.581 249.152L115.269 249.405L115.041 245.531L102.942 246.242L102.797 243.766L99.8419 243.939L99.9872 246.415L88.1276 247.111L88.2355 248.948L100.095 248.252L100.215 250.288L84.1622 251.231L84.2724 253.107L100.325 252.165L100.454 254.361L88.3545 255.071L88.4623 256.908L100.561 256.198L100.681 258.235L87.6235 259.001L87.7336 260.878L100.791 260.111L100.913 262.188L84.7808 263.135L84.9027 265.211L120.521 263.12L120.4 261.044L103.868 262.014ZM137.044 259.266C135.592 259.792 134.101 260.32 132.687 260.804L132.222 252.897L136.655 252.637L136.491 249.842L132.058 250.102L131.59 242.116L128.675 242.287L129.143 250.273L124.032 250.573L124.196 253.368L129.307 253.068L129.818 261.773C127.737 262.497 125.849 263.088 124.272 263.541L125.282 266.407L129.992 264.728L130.604 275.15C130.636 275.709 130.448 275.921 129.85 275.956C129.373 276.024 127.656 276.125 125.737 276.197C126.183 276.973 126.69 278.105 126.854 278.856C129.572 278.737 131.244 278.559 132.215 278.021C133.225 277.481 133.617 276.656 133.519 274.979L132.855 263.679C134.384 263.108 135.994 262.533 137.563 261.96L137.044 259.266ZM154.83 258.502C153.605 262.22 151.55 265.426 148.94 268.064C146.274 265.656 144.092 262.618 142.531 259.224L154.83 258.502ZM156.538 255.517L156.066 255.665L149.717 256.038L149.367 250.088L158.911 249.528L158.749 246.772L149.206 247.333L148.838 241.063L145.923 241.234L146.291 247.504L136.947 248.052L137.108 250.807L146.452 250.259L146.802 256.209L138.256 256.71L138.418 259.466L139.736 259.388L139.618 259.435C141.426 263.616 143.838 267.161 146.809 269.992C143.713 272.538 140.098 274.433 136.285 275.698C136.882 276.304 137.673 277.5 138.04 278.28C142.038 276.763 145.803 274.699 149.045 271.904C152.152 274.326 155.819 276.034 160.047 277.068C160.439 276.244 161.21 275.037 161.813 274.4C157.757 273.557 154.222 272.041 151.209 269.854C154.608 266.329 157.188 261.81 158.544 256.241L156.538 255.517ZM196.328 255.546C197.765 255.461 199.198 255.297 199.868 255.097C199.708 254.426 199.523 253.314 199.396 252.521C198.649 252.765 197.054 252.898 196.096 252.955L188.748 253.386C187.47 253.461 187.123 253.001 187.038 251.563L186.774 247.051L197.515 246.42L197.36 243.785L186.619 244.415L186.295 238.905L183.38 239.076L184.119 251.654C184.316 255.008 185.347 256.19 188.861 255.984L196.328 255.546ZM170.163 260.327C172.397 261.518 175.26 263.193 176.725 264.269L178.226 262.538C176.723 261.504 173.823 259.872 171.634 258.758L170.163 260.327ZM169.623 256.592L177.889 256.107L178.362 264.173C175.262 265.958 172.201 267.74 170.023 268.87C170.16 267.099 170.137 265.337 170.047 263.82L169.623 256.592ZM180.574 253.385L166.718 254.198L167.29 263.941C167.489 267.336 167.496 271.542 165.398 274.711C166.02 275.075 167.119 276.052 167.556 276.668C169.111 274.493 169.748 271.691 169.993 269.032L171.172 271.367C173.333 269.958 175.957 268.241 178.501 266.529L178.862 272.678C178.892 273.197 178.782 273.364 178.223 273.397C177.704 273.428 176.069 273.564 174.147 273.596C174.589 274.292 175.047 275.266 175.251 276.016C177.727 275.87 179.481 275.727 180.454 275.229C181.506 274.727 181.786 274.029 181.697 272.512L180.574 253.385ZM175.018 243.373C175.929 244.562 176.847 245.87 177.726 247.181L169.573 248.221C171.407 246.029 173.167 243.241 174.692 240.548L171.678 239.723C170.191 243.056 167.745 246.445 167.036 247.328C166.287 248.213 165.643 248.852 165.011 249.009C165.413 249.707 165.939 251.159 166.133 251.748C167.026 251.255 168.414 251.013 179.184 249.5C179.762 250.467 180.255 251.36 180.621 252.14L183.109 250.832C181.972 248.535 179.476 244.915 177.36 242.314L175.018 243.373ZM190.496 272.236C188.619 272.346 188.246 272.128 188.168 270.81L187.817 264.82L198.997 264.164L198.84 261.488L187.66 262.145L187.381 257.393L184.466 257.564L185.253 270.981C185.445 274.255 186.498 275.115 190.371 274.888L197.439 274.473C200.753 274.278 201.552 272.869 201.607 267.657C200.796 267.504 199.612 267.133 198.905 266.694C198.957 270.978 198.722 271.753 197.044 271.852L190.496 272.236ZM220.619 246.827L215.747 247.113L215.89 249.549L228.189 248.827L228.046 246.391L223.214 246.675L223.01 243.201L228.76 242.863L228.617 240.427L222.867 240.765L222.633 236.772L220.037 236.924L220.272 240.917L214.562 241.253L214.705 243.688L220.415 243.353L220.619 246.827ZM225.797 257.903L219.288 258.285L219.018 253.693L225.527 253.311L225.797 257.903ZM227.996 251.002L216.416 251.682L216.941 260.626L228.521 259.947L227.996 251.002ZM222 267.622C221.706 266.036 220.75 263.408 219.832 261.418L217.551 262.153C218.432 264.185 219.27 266.861 219.526 268.488L222 267.622ZM216.021 257.916C215.398 256.87 212.667 252.663 211.622 251.242L211.477 248.766L215.07 248.555L214.911 245.84L211.317 246.051L210.811 237.426L208.215 237.578L208.722 246.203L204.01 246.48L204.169 249.195L208.641 248.933C207.962 254.422 206.218 260.895 204.259 264.376C204.773 264.947 205.515 265.985 205.837 266.687C207.207 264.083 208.41 260.005 209.284 255.787L210.353 273.995L212.948 273.843L211.823 254.676C212.897 256.576 214.118 258.949 214.672 260.199L216.021 257.916ZM226.427 267.963C227.078 266.082 227.776 263.637 228.366 261.398L225.611 260.879C225.296 263.021 224.482 266.234 223.799 268.238L224.449 268.4C220.966 269.125 217.76 269.794 215.382 270.254L216.256 272.848C220.249 271.932 225.788 270.725 231.045 269.495L230.74 267.029L226.427 267.963ZM234.637 261.07C234.255 258.648 232.977 254.636 231.634 251.55L229.433 252.28C230.739 255.409 231.903 259.548 232.291 262.049L234.637 261.07ZM240.051 244.765L237.615 244.908L237.093 236.003L234.337 236.165L234.86 245.07L228.87 245.421L229.03 248.137L235.02 247.785L236.266 269.028C236.299 269.587 236.109 269.759 235.632 269.827C235.075 269.9 233.438 269.996 231.637 270.021C232.081 270.757 232.557 272.051 232.719 272.763C235.195 272.617 236.827 272.441 237.837 271.901C238.768 271.366 239.118 270.504 239.022 268.867L237.775 247.623L240.211 247.48L240.051 244.765ZM279.571 247.013L279.395 244.018L262.864 244.989C263.08 241.169 262.907 237.533 262.764 234.416L259.609 234.601C259.747 237.639 260.003 241.31 259.789 245.169L244.415 246.072L244.591 249.066L259.485 248.192C258.512 256.183 255.114 264.516 244.873 269.565C245.746 270.115 246.728 271.139 247.212 271.872C251.762 269.521 254.994 266.567 257.323 263.225C260.134 265.384 263.476 268.393 265.075 270.383L267.476 268.278C265.712 266.218 262.128 263.183 259.242 261.109L258.131 261.975C260.513 258.189 261.754 254.069 262.393 249.945C265.995 259.43 271.549 266.677 279.721 270.044C280.191 269.175 281.076 267.881 281.797 267.197C273.652 264.27 267.976 256.99 264.716 247.885L279.571 247.013ZM314.993 237.481C314.465 235.99 313.129 233.704 311.907 232.013L309.406 233.081C310.552 234.857 311.85 237.185 312.381 238.716L314.993 237.481ZM301.114 236.533L294.725 236.908L295.077 236.767C294.57 235.635 293.511 233.974 292.59 232.626L289.964 233.621C290.624 234.624 291.385 235.982 291.93 237.072L283.744 237.552L283.901 240.228L301.271 239.208L301.114 236.533ZM292.492 247.337C291.841 246.493 290.615 245.403 289.439 244.471C289.733 243.331 289.984 242.155 290.191 240.9L287.689 240.606C287.118 244.527 285.852 248.207 283.756 250.734C284.376 251.059 285.428 251.918 285.814 252.337C287.047 250.822 288.015 248.882 288.769 246.714C289.662 247.583 290.512 248.414 291.033 249.105L292.492 247.337ZM288.582 259.226C287.966 261.706 286.874 264.255 285.38 266.106C286.035 266.348 287.151 266.923 287.693 267.292C289.14 265.324 290.411 262.404 291.128 259.598L288.582 259.226ZM296.965 259.375C298.367 261.417 299.973 264.207 300.68 266.009L302.978 264.872C302.233 263.113 300.594 260.444 299.154 258.445L296.965 259.375ZM295.071 250.992L293.713 251.071C294.721 249.81 295.592 248.277 296.255 246.595C297.577 247.96 298.909 249.484 299.613 250.565L301.364 248.98C300.448 247.711 298.653 245.813 297.087 244.382C297.418 243.201 297.705 241.942 297.949 240.645L295.408 240.354C294.858 243.952 293.537 247.395 291.47 249.721C292.01 250.049 292.846 250.642 293.354 251.093L292.275 251.156L292.439 253.951L284.533 254.415L284.688 257.051L292.594 256.586L293.325 269.045L296.121 268.881L295.389 256.422L302.497 256.005L302.342 253.37L295.235 253.787L295.071 250.992ZM307.145 258.056L312.376 257.749L312.7 263.26L307.469 263.567L307.145 258.056ZM311.755 247.168L306.524 247.475L306.212 242.164L311.443 241.857L311.755 247.168ZM312.224 255.154L306.993 255.461L306.674 250.03L311.905 249.723L312.224 255.154ZM321.085 262.768L315.375 263.103L315.052 257.592L320.163 257.292L320.011 254.697L314.899 254.997L314.581 249.566L319.652 249.268L319.502 246.713L314.431 247.011L314.119 241.7L319.629 241.376L319.47 238.661L306.452 239.425C307.202 237.177 307.865 234.814 308.328 232.463L305.577 232.024C304.494 237.456 302.496 243.023 299.947 246.699C300.61 247.06 301.784 247.953 302.294 248.444C302.808 247.653 303.241 246.826 303.71 245.957L305.03 268.438L307.745 268.279L307.628 266.282L321.245 265.483L321.085 262.768ZM357.825 236.089L357.668 233.414L331.873 234.928C332.676 233.598 333.395 232.194 333.994 230.796L331.309 230.112C329.622 234.138 326.651 238.119 323.437 240.712C324.069 241.236 325.058 242.38 325.41 242.92C327.047 241.462 328.626 239.686 330.033 237.72L357.825 236.089ZM329.073 267.107C330.427 264.904 331.789 261.498 332.635 258.844L329.798 258.289C328.952 260.944 327.498 264.154 326.213 266.153L329.073 267.107ZM336.532 259.016C337.152 261.384 337.692 264.437 337.8 266.274L340.689 265.664C340.543 263.869 339.928 260.9 339.273 258.615L336.532 259.016ZM344.753 258.453C345.89 260.751 347.108 263.765 347.578 265.62L350.458 264.85C349.948 262.997 348.692 260.025 347.44 257.815L344.753 258.453ZM352.97 257.811C354.553 260.202 356.544 263.411 357.42 265.363L360.222 263.956C359.229 262.051 357.2 258.885 355.582 256.576L352.97 257.811ZM333.259 246.947L337.412 246.703L337.811 253.492L333.658 253.735L333.259 246.947ZM344.6 246.281L344.998 253.07L340.366 253.342L339.968 246.553L344.6 246.281ZM351.548 245.874L351.946 252.662L347.554 252.92L347.155 246.131L351.548 245.874ZM354.701 252.5L354.303 245.712L358.815 245.447L358.658 242.772L354.146 243.037L353.886 238.604L351.131 238.766L351.391 243.198L346.998 243.456L346.738 239.024L344.183 239.174L344.443 243.606L339.811 243.878L339.55 239.446L336.995 239.596L337.255 244.028L333.102 244.272L332.842 239.839L330.167 239.996L330.427 244.429L325.635 244.71L325.792 247.385L330.584 247.104L330.982 253.892L324.873 254.251L325.03 256.926L360.169 254.864L360.012 252.189L354.701 252.5ZM386.768 237.676C385.746 236.654 383.816 235.164 382.104 233.983C382.672 232.066 383.149 229.955 383.462 227.773L380.561 227.502C379.797 233.597 377.741 238.847 374.18 242.341C374.882 242.701 376.063 243.713 376.533 244.207C378.495 242.128 380.062 239.472 381.246 236.437C382.838 237.626 384.525 239.05 385.464 240.036L386.768 237.676ZM370.858 228.072C369.265 230.97 365.953 234.61 362.96 236.869C363.509 237.358 364.329 238.352 364.763 238.927C367.977 236.335 371.475 232.443 373.632 228.91L370.858 228.072ZM372.29 236.081C370.18 240.413 366.63 244.788 363.153 247.677C363.67 248.287 364.67 249.631 364.985 250.214C366.432 248.927 367.863 247.36 369.247 245.676L370.367 264.763L373.122 264.602L371.812 242.28C373.029 240.486 374.084 238.661 374.979 236.845L372.29 236.081ZM389.841 251.8L398.706 251.28L398.558 248.764L389.693 249.284L389.299 242.576L387.742 242.667C389.523 240.92 390.961 238.792 392.013 236.246C394.416 238.269 397.002 240.681 398.383 242.363L400.3 240.207C398.752 238.415 395.628 235.713 392.904 233.669C393.508 231.671 393.898 229.444 394.119 227.067L391.263 226.874C390.75 233.155 388.797 238.118 384.938 241.309C385.515 241.596 386.434 242.223 387.063 242.707L386.544 242.738L387.524 259.429C384.938 258.379 382.925 256.173 381.479 252.01C381.693 250.195 381.817 248.224 381.813 246.101L378.966 246.067C378.993 253.358 377.912 258.831 374.036 262.424C374.701 262.826 375.957 263.754 376.385 264.21C378.501 262.042 379.869 259.397 380.687 256.264C383.669 262.019 387.906 263.213 393.856 262.864L400.485 262.475C400.52 261.711 400.884 260.408 401.246 259.745L393.859 260.179C392.621 260.252 391.418 260.242 390.328 260.106L389.841 251.8ZM438.926 229.966L438.752 227.011L403.493 229.081L403.666 232.036L418.92 231.141L420.711 261.648L423.865 261.463L422.633 240.459C427.328 242.628 432.871 245.588 435.717 247.665L437.637 244.867C434.342 242.657 427.861 239.431 422.976 237.434L422.492 238.063L422.075 230.955L438.926 229.966ZM479.997 242.261L463.625 243.222L463.245 236.753L477.381 235.923L477.215 233.088L463.079 233.918L462.699 227.449C467.378 226.613 471.686 225.599 475.019 224.362L472.645 222.137C466.765 224.365 455.246 226.083 445.848 227.076C446.168 227.738 446.595 228.875 446.762 229.667C450.863 229.226 455.359 228.681 459.723 227.944L460.084 234.094L446.348 234.9L446.514 237.735L460.25 236.929L460.63 243.398L444.218 244.361L444.389 247.276L460.801 246.313L461.319 255.137C461.368 255.976 461.025 256.277 460.147 256.328C459.231 256.422 456.119 256.645 452.757 256.722C453.283 257.492 453.92 258.777 454.209 259.602C458.404 259.396 460.955 259.166 462.404 258.6C463.853 258.034 464.441 257.118 464.316 255.002L463.796 246.137L480.168 245.176L479.997 242.261ZM499.99 244.293L503.265 244.101C501.835 238.174 511.306 236.376 510.952 230.347C510.682 225.754 506.92 223.09 501.289 223.421C496.937 223.676 493.93 225.696 491.459 228.646L493.732 230.516C495.825 227.949 498.351 226.599 501.066 226.439C505.139 226.2 507.253 228.079 507.414 230.835C507.682 235.387 498.363 237.737 499.99 244.293ZM498.867 251.09C498.979 253.007 500.529 254.158 502.286 254.055C504.043 253.952 505.408 252.63 505.296 250.713C505.183 248.796 503.675 247.683 501.918 247.786C500.161 247.889 498.754 249.174 498.867 251.09Z" fill="#06102B"/>
<path fill-rule="evenodd" clip-rule="evenodd" d="M621.748 230.091C614.048 214.799 612.359 198.93 618.354 185.056C632.453 152.424 683.719 143.182 732.859 164.415C781.999 185.647 810.405 229.313 796.306 261.945C782.206 294.577 730.94 303.818 681.8 282.586C662.486 274.241 646.375 262.43 634.789 249.186C623.353 251.536 613.255 253.416 608.25 253.416C599.868 253.416 608.892 242.801 621.748 230.091Z" fill="#151F3F"/>
<path d="M618.354 185.056L617.436 184.659L617.436 184.659L618.354 185.056ZM621.748 230.091L622.641 229.641L622.968 230.291L622.451 230.802L621.748 230.091ZM732.859 164.415L732.462 165.332L732.462 165.332L732.859 164.415ZM796.306 261.945L795.388 261.548L796.306 261.945ZM681.8 282.586L682.197 281.668L682.197 281.668L681.8 282.586ZM634.789 249.186L634.588 248.206L635.158 248.089L635.542 248.527L634.789 249.186ZM619.272 185.452C613.424 198.986 615.037 214.539 622.641 229.641L620.855 230.541C613.059 215.06 611.294 198.874 617.436 184.659L619.272 185.452ZM732.462 165.332C708.048 154.783 683.146 151.824 662.644 155.52C642.133 159.217 626.147 169.54 619.272 185.452L617.436 184.659C624.66 167.939 641.357 157.325 662.289 153.552C683.229 149.777 708.53 152.813 733.256 163.497L732.462 165.332ZM795.388 261.548C802.263 245.636 798.824 226.92 787.459 209.45C776.099 191.987 756.877 175.882 732.462 165.332L733.256 163.497C757.981 174.18 777.532 190.523 789.135 208.359C800.734 226.188 804.448 245.621 797.224 262.341L795.388 261.548ZM682.197 281.668C706.611 292.217 731.513 295.176 752.016 291.48C772.526 287.783 788.512 277.46 795.388 261.548L797.224 262.341C789.999 279.061 773.302 289.675 752.37 293.448C731.43 297.223 706.129 294.187 681.403 283.504L682.197 281.668ZM635.542 248.527C647.022 261.651 663.008 273.377 682.197 281.668L681.403 283.504C661.964 275.104 645.728 263.209 634.036 249.844L635.542 248.527ZM608.25 252.416C613.129 252.416 623.108 250.565 634.588 248.206L634.99 250.165C623.598 252.506 613.381 254.416 608.25 254.416V252.416ZM622.451 230.802C616.015 237.165 610.618 242.929 607.868 247.073C607.184 248.103 606.685 249.003 606.373 249.766C606.056 250.542 605.969 251.091 606.009 251.449C606.042 251.745 606.156 251.926 606.407 252.075C606.715 252.259 607.283 252.416 608.25 252.416V254.416C607.122 254.416 606.138 254.242 605.385 253.795C604.575 253.314 604.12 252.566 604.021 251.669C603.929 250.833 604.148 249.923 604.522 249.009C604.901 248.08 605.477 247.058 606.201 245.967C609.082 241.626 614.625 235.727 621.045 229.38L622.451 230.802Z" fill="url(#paint0_linear_1_57)"/>
<path d="M701.414 195.437C690.903 189.781 681.653 191.709 676.316 201.628C669.872 213.604 674.141 220.662 691.5 230.002L693.95 226.124C681.663 219.513 675.433 214.816 681.134 204.221C685.592 195.936 692.679 195.934 699.527 199.618C703.021 201.498 707.962 204.811 705.594 210.223C704.883 207.696 702.873 205.488 699.517 203.756C694.4 201.111 688.97 200.261 685.483 206.742C681.98 213.252 685.62 217.427 690.723 220.1C694.092 221.876 697.07 222.352 699.586 221.525L698.342 223.836L703.189 226.444L709.421 214.862C713.742 206.831 711.755 201.002 701.414 195.437ZM694.216 216.783C690.13 214.584 688.709 212.294 690.302 209.335C691.894 206.376 694.588 206.299 698.674 208.498C702.562 210.59 704.015 212.753 702.817 215.452L702.317 216.382C700.71 218.896 698.105 218.875 694.216 216.783ZM738.988 215.655C728.477 209.999 719.228 211.927 713.89 221.846C707.446 233.822 711.716 240.88 729.074 250.22L731.524 246.342C719.238 239.731 713.008 235.034 718.709 224.439C723.167 216.154 730.254 216.152 737.102 219.836C740.596 221.716 745.536 225.029 743.169 230.441C742.457 227.914 740.448 225.706 737.092 223.974C731.974 221.329 726.545 220.479 723.057 226.96C719.555 233.47 723.195 237.645 728.298 240.318C731.666 242.094 734.644 242.57 737.16 241.743L735.917 244.054L740.764 246.662L746.996 235.08C751.317 227.049 749.33 221.22 738.988 215.655ZM731.79 237.001C727.704 234.802 726.284 232.512 727.876 229.553C729.468 226.594 732.162 226.517 736.248 228.716C740.137 230.808 741.59 232.971 740.392 235.67L739.892 236.6C738.284 239.114 735.679 239.093 731.79 237.001Z" fill="white"/>
<path d="M710.679 33.9811L741.549 92.0081C745.338 99.1308 738.564 107.257 730.876 104.812L635.383 74.4407C627.436 71.9132 626.903 60.871 634.57 57.5899L699.192 29.934C703.491 28.0943 708.482 29.853 710.679 33.9811Z" stroke="white" stroke-width="2"/>
<path d="M244.682 83.1116L498.816 24.7606C529.865 17.6314 560.005 39.7313 562.543 71.4876C564.854 100.423 543.12 125.689 514.163 127.726L254.06 146.026C235.605 147.324 219.92 132.704 219.92 114.204C219.92 99.3355 230.191 86.4388 244.682 83.1116Z" fill="#151F3F" stroke="url(#paint1_linear_1_57)" stroke-width="2"/>
<defs>
<filter id="filter0_d_1_57" x="0.425415" y="166.338" width="559.872" height="222.267" filterUnits="userSpaceOnUse" color-interpolation-filters="sRGB">
<feFlood flood-opacity="0" result="BackgroundImageFix"/>
<feColorMatrix in="SourceAlpha" type="matrix" values="0 0 0 0 0 0 0 0 0 0 0 0 0 0 0 0 0 0 127 0" result="hardAlpha"/>
<feOffset/>
<feGaussianBlur stdDeviation="5"/>
<feComposite in2="hardAlpha" operator="out"/>
<feColorMatrix type="matrix" values="0 0 0 0 0.615686 0 0 0 0 0.643137 0 0 0 0 1 0 0 0 0.6 0"/>
<feBlend mode="normal" in2="BackgroundImageFix" result="effect1_dropShadow_1_57"/>
<feBlend mode="normal" in="SourceGraphic" in2="effect1_dropShadow_1_57" result="shape"/>
</filter>
<linearGradient id="paint0_linear_1_57" x1="793.14" y1="162.165" x2="584.967" y2="214.863" gradientUnits="userSpaceOnUse">
<stop stop-color="#313A65"/>
<stop offset="1" stop-color="#313A65" stop-opacity="0"/>
</linearGradient>
<linearGradient id="paint1_linear_1_57" x1="222.723" y1="44.357" x2="538.964" y2="188.331" gradientUnits="userSpaceOnUse">
<stop stop-color="#313A65"/>
<stop offset="1" stop-color="#313A65" stop-opacity="0"/>
</linearGradient>
</defs>
</svg>
