<svg width="914" height="329" viewBox="0 0 914 329" fill="none" xmlns="http://www.w3.org/2000/svg">
<g filter="url(#filter0_d_1_56)">
<path fill-rule="evenodd" clip-rule="evenodd" d="M798.792 14.5996C841.443 3.80923 884.307 31.4178 892.121 74.7132C898.894 112.234 876.84 148.287 841.759 160.115C845.592 168.448 851.44 177.926 856.483 186.099C859.514 191.013 862.255 195.456 864.092 198.894C867.751 205.742 854.776 199.296 836.453 190.192C822.939 183.478 806.515 175.318 791.709 169.98L473.357 227.439C438.548 233.722 405.339 210.277 399.608 175.372C394.278 142.912 414.684 111.776 446.573 103.708L798.792 14.5996Z" fill="#55FFAD"/>
</g>
<path d="M467.922 163.856C466.274 162.972 463.16 162.148 460.69 161.788L459.554 164.277C462.09 164.745 465.241 165.724 466.85 166.617L467.922 163.856ZM468.237 185.65C469.062 181.673 469.883 176.463 470.363 172.074L467.707 171.1C467.145 175.838 466.107 181.346 465.26 184.712L468.237 185.65ZM458.764 153.488C461.202 154.061 464.312 155.215 465.862 156.204L467.03 153.502C465.403 152.531 462.369 151.524 459.949 151.029L458.764 153.488ZM476.045 153.38L484.413 151.396L485.188 154.666L476.82 156.649L476.045 153.38ZM488.62 156.483L487.255 150.723L493.482 149.247L492.873 146.678L486.646 148.154L485.769 144.457L482.928 145.13L483.805 148.828L475.436 150.811L474.56 147.113L471.797 147.768L472.673 151.466L466.874 152.84L467.482 155.409L473.282 154.035L474.647 159.795L480.174 158.485L480.829 161.249L470.398 163.721L475.296 184.388L477.826 183.789L473.518 165.612L481.419 163.74L484.15 175.261C482.109 173.935 480.373 170.771 479.221 166.604L475.523 167.48L475.993 169.465L478.212 168.94C478.371 169.436 478.53 169.933 478.718 170.382L478.057 170.539C478.347 172.977 478.031 175.806 476.513 177.728C476.958 177.87 477.719 178.306 478.083 178.63C479.267 177.034 479.786 175.062 479.909 172.977C480.885 174.842 482.081 176.244 483.39 177.085C483.531 176.64 483.927 176.053 484.242 175.65L485.644 181.566L488.252 180.948L484.027 163.122L492.317 161.157L495.048 172.678C492.792 171.486 490.87 168.406 489.652 164.132L485.954 165.008L486.424 166.993L488.643 166.467C488.802 166.964 488.99 167.413 489.14 167.87L488.517 168.018C488.789 170.379 488.445 173.091 486.87 174.945C487.363 175.116 488.124 175.552 488.45 175.886C489.643 174.329 490.21 172.385 490.351 170.379C491.415 172.264 492.679 173.609 494.066 174.431C494.237 173.939 494.74 173.285 495.094 172.872L495.97 176.57C496.081 177.037 495.944 177.152 495.477 177.262C495.019 177.412 493.501 177.772 491.857 178.12C492.325 178.708 492.849 179.529 493.122 180.163C495.497 179.601 497.044 179.193 497.895 178.621C498.737 178.011 498.853 177.284 498.539 175.961L494.296 158.057L483.437 160.631L482.782 157.867L488.62 156.483ZM504.439 145.006L525.068 140.117L526.876 147.745L506.247 152.634L504.439 145.006ZM520.597 161.319L533.636 158.229L532.999 155.543L519.961 158.634L518.54 152.64L530.528 149.798L527.401 136.604L500.934 142.877L504.061 156.071L515.621 153.332L519.357 169.095C515.831 168.615 512.826 166.861 510.3 163.143C510.341 161.407 510.265 159.698 510.12 158.047L506.962 158.426C507.737 164.121 507.418 171.102 503.665 175.733C504.341 175.984 505.545 176.726 506.15 177.199C508.406 174.403 509.566 170.799 510.029 167.03C515.323 172.887 521.628 172.955 529.88 170.999L538.443 168.97C538.405 168.116 538.567 166.721 538.829 165.918C537.204 166.345 530.587 167.913 529.381 168.199C526.928 168.78 524.634 169.16 522.47 169.22L520.597 161.319ZM570.166 130.414L569.483 127.534L536.244 135.412L536.927 138.292L554.13 134.215C551.854 141.784 546.73 149.822 539.976 155.493C540.717 156.016 541.918 156.924 542.522 157.562C547.258 153.438 551.057 148.304 553.927 142.896L559.056 164.537L562.131 163.808L556.079 138.275C556.711 136.604 557.313 134.982 557.828 133.339L570.166 130.414ZM557.826 142.177C563.138 144.125 569.987 147.352 573.452 149.655L575.223 146.892C571.68 144.608 564.731 141.651 559.524 139.802L557.826 142.177ZM604.726 119.264L604.072 119.624L576.281 126.211L576.955 129.052L601.982 123.12C599.717 126.576 596.272 130.599 592.969 133.314L597.296 151.568C597.462 152.269 597.274 152.518 596.466 152.751C595.58 153.002 592.593 153.751 589.334 154.4C589.986 155.068 590.835 156.223 591.185 157.004C595.116 156.072 597.675 155.424 599.044 154.607C600.46 153.819 600.763 152.843 600.293 150.858L596.308 134.043C600.516 130.292 604.85 124.989 607.38 120.402L604.726 119.264ZM639.385 126.917L641.129 134.273L630.931 136.69L629.188 129.334L639.385 126.917ZM644.444 136.118L641.529 123.819L625.921 127.518L629.5 142.62L632.186 141.983L631.522 139.181L644.444 136.118ZM642.032 116.752L622.416 121.402L623.016 123.931L642.632 119.282L642.032 116.752ZM646.529 108.493L614.613 116.057L622.583 149.685L625.386 149.021L618.07 118.156L644.343 111.929L650.772 139.058C650.92 139.681 650.742 139.969 650.05 140.174C649.398 140.37 647.14 140.905 644.67 141.409C645.321 142.076 646.084 143.211 646.394 144.001C649.741 143.207 651.669 142.668 652.765 141.915C653.813 141.133 654.038 140.175 653.614 138.384L646.529 108.493ZM686.142 125.947L676.801 128.161L676.109 125.242L685.45 123.028L686.142 125.947ZM674.919 120.221L684.26 118.007L684.906 120.732L675.565 122.946L674.919 120.221ZM662.038 115.998L661.374 113.196L669.742 111.212L670.406 114.015L662.038 115.998ZM681.341 108.463L682.005 111.266L673.286 113.332L672.622 110.53L681.341 108.463ZM691.795 119.099L687.786 120.049L686.633 115.184L674.412 118.081L673.766 115.356L685.365 112.607L683.741 105.757L672.142 108.506L671.607 106.248L687.098 102.577L686.535 100.203L671.045 103.874L670.307 100.76L667.426 101.443L668.164 104.557L652.985 108.155L653.548 110.529L668.727 106.931L669.262 109.189L658.131 111.827L659.754 118.677L670.886 116.039L671.531 118.763L659.31 121.66L659.817 123.801L672.039 120.904L672.685 123.628L656.766 127.401L657.31 129.698L673.229 125.925L673.921 128.844L661.349 131.824L661.875 134.042L674.447 131.063L675.083 133.748C675.24 134.41 675.062 134.699 674.331 134.913C673.67 135.07 671.344 135.662 668.99 136.138C669.536 136.707 670.252 137.647 670.583 138.35C673.814 137.584 675.828 137.066 676.933 136.352C678 135.647 678.388 134.856 677.963 133.065L677.327 130.38L686.668 128.166L687.083 129.917L689.963 129.235L688.33 122.346L692.339 121.395L691.795 119.099ZM706.78 109.998L698.607 111.935L696.679 103.8L704.852 101.863L706.78 109.998ZM701.429 123.845L699.215 114.504L707.389 112.567L709.603 121.908L701.429 123.845ZM697.836 94.1125C697.997 96.0064 697.914 98.7802 697.773 100.787L693.414 101.82L700.13 130.155L702.776 129.528L702.047 126.453L712.868 123.888L706.881 98.6282L700.42 100.159C700.685 98.329 700.878 96.0223 701.088 93.9583L697.836 94.1125ZM725.886 94.0004L714.248 96.7587C714.476 94.7725 714.578 92.7751 714.593 90.7573L711.673 90.7506C711.692 96.378 710.863 102.247 709.067 106.291C709.782 106.532 711.212 107.015 711.828 107.363C712.757 105.21 713.401 102.55 713.873 99.6841L723.759 97.341C726.924 112.952 727.743 119.006 726.781 120.673C726.512 121.271 726.102 121.45 725.324 121.635C724.429 121.847 722.093 122.401 719.508 122.767C720.247 123.455 720.874 124.54 721.155 125.377C723.362 124.978 725.599 124.53 726.924 124.051C728.22 123.621 729.032 123.058 729.63 121.765C730.735 119.489 729.82 113.375 726.236 95.4795L725.886 94.0004ZM723.887 112.973C722.098 110.972 718.526 107.872 715.692 105.625L713.748 107.483C716.553 109.778 720.074 113.013 721.795 115.072L723.887 112.973ZM734.465 86.6641C735.757 88.1255 737.022 90.1688 737.529 91.6109L739.604 90.1325C739.068 88.7386 737.715 86.6748 736.373 85.3486L734.465 86.6641ZM745.858 89.6368L730.523 93.2714L731.095 95.6846L746.43 92.05L745.858 89.6368ZM745.964 108.645L747.505 115.145L740.694 116.759L739.153 110.259L745.964 108.645ZM748.009 105.652L736.021 108.494L739.112 121.532L741.681 120.924L741.256 119.133L750.675 116.901L748.009 105.652ZM735.369 105.565L747.434 102.706L746.881 100.37L734.815 103.23L735.369 105.565ZM733.597 98.0923L734.142 100.389L746.207 97.5289L745.663 95.2326L733.597 98.0923ZM768.834 95.866L760.115 97.9323L757.975 88.9025L765.876 87.0299L765.24 84.3443L751.539 87.5914C751.726 85.7794 751.847 83.8599 751.851 81.968L748.832 82.0668C748.912 87.4331 748.069 92.8947 746.032 96.7894C746.894 96.9552 748.333 97.4774 748.988 97.8153C749.926 95.702 750.655 93.2272 751.125 90.5261L755.095 89.5851L757.235 98.615L748.244 100.746L748.899 103.509L757.89 101.378L761.506 116.636L764.386 115.953L760.77 100.696L769.489 98.6294L768.834 95.866ZM803.013 84.1477L793.944 86.2971L793.058 82.5606L802.127 80.4112L803.013 84.1477ZM804.415 90.0638L795.346 92.2132L794.442 88.3989L803.511 86.2495L804.415 90.0638ZM805.835 96.0577L796.767 98.2071L795.853 94.3539L804.922 92.2045L805.835 96.0577ZM790.032 80.8935L794.811 101.055L808.939 97.7064L804.161 77.5449L797.388 79.15C797.423 77.9086 797.421 76.5114 797.428 75.1532L804.317 73.5204L803.727 71.0294L787.263 74.9316L787.853 77.4225L794.548 75.8359C794.678 77.0793 794.776 78.5359 794.82 79.7589L790.032 80.8935ZM780.561 100.075C780.682 102.842 780.462 105.73 779.708 107.923C780.395 108.048 781.536 108.353 782.047 108.602C782.735 106.301 783.076 103.055 782.958 99.9588L780.561 100.075ZM780.595 91.7218L787.29 90.1352L788.203 93.9884L781.508 95.5751L780.595 91.7218ZM779.211 85.8836L785.906 84.2969L786.801 88.0723L780.106 89.659L779.211 85.8836ZM791.133 95.5961L787.812 81.5843L782.479 82.8481C782.514 81.6066 782.541 80.1613 782.578 78.755L787.054 77.6941L786.445 75.1253L770.332 78.9444L773.708 93.1897C774.972 98.522 776.447 105.613 775.448 111.112C776.009 111.225 777.323 111.736 777.861 112.102C779.068 106.266 777.576 98.2338 776.238 92.5901L773.47 80.9136L779.776 79.4192C779.906 80.6626 779.975 82.1673 780.027 83.4292L776.369 84.2964L779.69 98.3082L784.127 97.2566L786.627 107.804C786.71 108.155 786.611 108.26 786.261 108.343C785.842 108.484 784.713 108.751 783.303 109.044C783.81 109.623 784.391 110.513 784.655 111.108C786.563 110.656 787.799 110.322 788.572 109.769C789.249 109.156 789.326 108.439 789.049 107.271L786.54 96.6846L791.133 95.5961ZM794.23 103.289C793.472 101.824 791.794 99.4268 790.389 97.6632L788.561 98.7954C789.936 100.607 791.585 103.053 792.332 104.643L794.23 103.289ZM798.244 101.146C797.221 103.073 794.88 105.684 792.686 107.355C793.39 107.722 794.44 108.337 794.988 108.741C797.134 107.041 799.612 104.316 800.989 101.975L798.244 101.146ZM803.675 101.338C805.972 102.356 808.862 103.973 810.362 105.097L812.182 103.063C810.643 101.948 807.693 100.427 805.493 99.4687L803.675 101.338ZM828.009 87.8015L831.201 87.045C828.766 81.4558 837.782 78.0445 836.389 72.1673C835.329 67.6913 831.161 65.7192 825.673 67.0199C821.431 68.0254 818.819 70.5354 816.896 73.8687L819.459 75.3167C821.076 72.4258 823.329 70.6586 825.976 70.0313C829.946 69.0903 832.353 70.5752 832.99 73.2608C834.042 77.6979 825.271 81.6264 828.009 87.8015ZM828.08 94.6909C828.523 96.5591 830.249 97.4243 831.961 97.0185C833.674 96.6126 834.789 95.0739 834.346 93.2056C833.903 91.3374 832.226 90.5018 830.513 90.9077C828.8 91.3136 827.637 92.8226 828.08 94.6909Z" fill="#06102B"/>
<path fill-rule="evenodd" clip-rule="evenodd" d="M236.292 242.805C246.46 222.612 248.691 201.655 240.774 183.332C222.155 140.239 154.453 128.034 89.5594 156.074C24.6655 184.113 -12.8472 241.777 5.77262 284.871C24.3924 327.965 92.0937 340.169 156.988 312.13C182.493 301.109 203.769 285.512 219.07 268.022C234.172 271.125 247.507 273.609 254.117 273.609C265.187 273.609 253.269 259.591 236.292 242.805Z" fill="#151F3F"/>
<path d="M240.774 183.332L241.692 182.936L241.692 182.936L240.774 183.332ZM236.292 242.805L235.399 242.356L235.072 243.005L235.589 243.517L236.292 242.805ZM89.5594 156.074L89.956 156.992L89.956 156.992L89.5594 156.074ZM5.77262 284.871L6.6906 284.474L6.6906 284.474L5.77262 284.871ZM156.988 312.13L157.384 313.048L157.384 313.048L156.988 312.13ZM219.07 268.022L219.271 267.043L218.701 266.925L218.317 267.364L219.07 268.022ZM239.856 183.729C247.626 201.711 245.472 222.351 235.399 242.356L237.185 243.255C247.449 222.872 249.756 201.599 241.692 182.936L239.856 183.729ZM89.956 156.992C122.248 143.039 155.197 139.119 182.342 144.012C209.496 148.907 230.721 162.586 239.856 183.729L241.692 182.936C232.208 160.985 210.272 147.015 182.697 142.044C155.113 137.072 121.765 141.069 89.1628 155.156L89.956 156.992ZM6.6906 284.474C-2.44469 263.332 2.14086 238.501 17.1866 215.372C32.2275 192.251 57.6643 170.944 89.956 156.992L89.1628 155.156C56.5606 169.242 30.794 190.787 15.5101 214.282C0.231018 237.769 -4.62985 263.317 4.85465 285.268L6.6906 284.474ZM156.591 311.212C124.299 325.164 91.35 329.084 64.2047 324.191C37.0508 319.296 15.8259 305.617 6.6906 284.474L4.85465 285.268C14.3391 307.219 36.2748 321.189 63.8499 326.159C91.4337 331.132 124.782 327.134 157.384 313.048L156.591 311.212ZM218.317 267.364C203.122 284.733 181.971 300.245 156.591 311.212L157.384 313.048C183.016 301.973 204.417 286.291 219.822 268.681L218.317 267.364ZM254.117 272.609C247.634 272.609 234.417 270.155 219.271 267.043L218.869 269.002C233.927 272.096 247.381 274.609 254.117 274.609V272.609ZM235.589 243.517C244.085 251.917 251.236 259.55 254.889 265.054C255.798 266.424 256.47 267.633 256.892 268.666C257.32 269.714 257.456 270.496 257.395 271.046C257.341 271.534 257.136 271.864 256.715 272.114C256.236 272.398 255.42 272.609 254.117 272.609V274.609C255.581 274.609 256.814 274.381 257.736 273.833C258.716 273.251 259.263 272.355 259.383 271.266C259.497 270.239 259.228 269.095 258.744 267.91C258.253 266.71 257.505 265.38 256.555 263.949C252.772 258.248 245.476 250.479 236.995 242.094L235.589 243.517Z" fill="url(#paint0_linear_1_56)"/>
<path d="M97.2256 214.485L85.5979 222.98L108.65 253.992L119.761 245.875L97.2256 214.485ZM112.567 259.354L118.891 268.01L129.937 259.94L123.613 251.284L112.567 259.354ZM125.366 193.927L113.738 202.422L136.791 233.434L147.901 225.317L125.366 193.927ZM140.708 238.796L147.031 247.452L158.078 239.382L151.754 230.726L140.708 238.796Z" fill="white"/>
<mask id="path-6-inside-1_1_56" fill="white">
<path fill-rule="evenodd" clip-rule="evenodd" d="M319.425 138.971C318.911 143.044 320.051 146.945 322.323 149.998C323.314 151.331 322.834 153.6 321.388 154.418C317.333 156.711 314.375 160.824 313.747 165.801C313.204 170.098 314.504 174.204 317.03 177.324C318.103 178.649 317.677 181.063 316.216 181.943C312.347 184.273 309.546 188.288 308.936 193.116C307.879 201.482 313.805 209.121 322.171 210.178C330.537 211.234 338.176 205.309 339.233 196.943C339.775 192.645 338.476 188.54 335.95 185.42C334.877 184.094 335.302 181.68 336.763 180.8C340.632 178.471 343.434 174.455 344.044 169.627C344.558 165.554 343.418 161.654 341.146 158.601C340.154 157.268 340.635 154.999 342.081 154.181C346.136 151.888 349.093 147.774 349.722 142.798C350.779 134.431 344.853 126.793 336.487 125.736C328.121 124.679 320.482 130.605 319.425 138.971Z"/>
</mask>
<path d="M342.081 154.181L341.097 152.44L342.081 154.181ZM335.95 185.42L337.504 184.161L335.95 185.42ZM336.763 180.8L335.732 179.087L336.763 180.8ZM316.216 181.943L315.184 180.23L316.216 181.943ZM321.388 154.418L320.403 152.677L321.388 154.418ZM323.927 148.804C321.952 146.149 320.962 142.762 321.409 139.222L317.441 138.721C316.859 143.326 318.151 147.741 320.718 151.192L323.927 148.804ZM315.731 166.052C316.277 161.728 318.844 158.154 322.372 156.158L320.403 152.677C315.822 155.268 312.474 159.92 311.763 165.55L315.731 166.052ZM318.584 176.065C316.387 173.351 315.259 169.786 315.731 166.052L311.763 165.55C311.149 170.41 312.621 175.056 315.475 178.582L318.584 176.065ZM310.92 193.367C311.45 189.172 313.881 185.684 317.248 183.657L315.184 180.23C310.814 182.862 307.641 187.404 306.952 192.865L310.92 193.367ZM322.422 208.193C315.151 207.275 310.002 200.637 310.92 193.367L306.952 192.865C305.756 202.328 312.458 210.967 321.92 212.162L322.422 208.193ZM337.248 196.692C336.33 203.962 329.692 209.112 322.422 208.193L321.92 212.162C331.382 213.357 340.022 206.655 341.217 197.193L337.248 196.692ZM334.395 186.678C336.593 189.392 337.72 192.957 337.248 196.692L341.217 197.193C341.831 192.333 340.359 187.687 337.504 184.161L334.395 186.678ZM342.06 169.377C341.53 173.571 339.098 177.06 335.732 179.087L337.795 182.514C342.166 179.882 345.338 175.339 346.028 169.878L342.06 169.377ZM339.542 159.795C341.517 162.45 342.507 165.836 342.06 169.377L346.028 169.878C346.61 165.272 345.318 160.857 342.751 157.407L339.542 159.795ZM347.738 142.547C347.192 146.871 344.625 150.444 341.097 152.44L343.066 155.922C347.647 153.331 350.995 148.678 351.706 143.048L347.738 142.547ZM336.236 127.72C343.507 128.639 348.656 135.277 347.738 142.547L351.706 143.048C352.901 133.586 346.2 124.947 336.737 123.752L336.236 127.72ZM321.409 139.222C322.328 131.951 328.966 126.802 336.236 127.72L336.737 123.752C327.275 122.557 318.636 129.259 317.441 138.721L321.409 139.222ZM342.751 157.407C342.67 157.298 342.571 157.017 342.656 156.612C342.742 156.207 342.947 155.989 343.066 155.922L341.097 152.44C339.77 153.191 339.011 154.516 338.743 155.784C338.475 157.051 338.631 158.571 339.542 159.795L342.751 157.407ZM337.504 184.161C337.418 184.055 337.295 183.749 337.376 183.29C337.457 182.831 337.677 182.585 337.795 182.514L335.732 179.087C334.389 179.895 333.666 181.296 333.437 182.596C333.208 183.896 333.409 185.46 334.395 186.678L337.504 184.161ZM315.475 178.582C315.562 178.689 315.684 178.995 315.604 179.453C315.523 179.912 315.303 180.158 315.184 180.23L317.248 183.657C318.59 182.848 319.314 181.447 319.543 180.148C319.772 178.848 319.571 177.284 318.584 176.065L315.475 178.582ZM320.718 151.192C320.799 151.3 320.898 151.582 320.813 151.987C320.727 152.391 320.522 152.609 320.403 152.677L322.372 156.158C323.699 155.408 324.458 154.082 324.726 152.815C324.994 151.547 324.838 150.028 323.927 148.804L320.718 151.192Z" fill="white" mask="url(#path-6-inside-1_1_56)"/>
<defs>
<filter id="filter0_d_1_56" x="388.763" y="2.25819" width="514.578" height="236.2" filterUnits="userSpaceOnUse" color-interpolation-filters="sRGB">
<feFlood flood-opacity="0" result="BackgroundImageFix"/>
<feColorMatrix in="SourceAlpha" type="matrix" values="0 0 0 0 0 0 0 0 0 0 0 0 0 0 0 0 0 0 127 0" result="hardAlpha"/>
<feOffset/>
<feGaussianBlur stdDeviation="5"/>
<feComposite in2="hardAlpha" operator="out"/>
<feColorMatrix type="matrix" values="0 0 0 0 0.333333 0 0 0 0 1 0 0 0 0 0.68 0 0 0 0.6 0"/>
<feBlend mode="normal" in2="BackgroundImageFix" result="effect1_dropShadow_1_56"/>
<feBlend mode="normal" in="SourceGraphic" in2="effect1_dropShadow_1_56" result="shape"/>
</filter>
<linearGradient id="paint0_linear_1_56" x1="9.95337" y1="153.103" x2="284.865" y2="222.695" gradientUnits="userSpaceOnUse">
<stop stop-color="#313A65"/>
<stop offset="1" stop-color="#313A65" stop-opacity="0"/>
</linearGradient>
</defs>
</svg>
