<svg width="337" height="171" viewBox="0 0 337 171" fill="none" xmlns="http://www.w3.org/2000/svg">
<path fill-rule="evenodd" clip-rule="evenodd" d="M89.4924 138.289C93.3168 130.694 94.1558 122.812 91.1783 115.921C84.1755 99.7136 58.7133 95.1237 34.3069 105.669C9.9005 116.215 -4.20787 137.902 2.79497 154.109C9.7978 170.317 35.26 174.907 59.6664 164.361C69.2591 160.216 77.2609 154.35 83.0154 147.772C88.6951 148.94 93.7103 149.873 96.196 149.873C100.359 149.873 95.8773 144.602 89.4924 138.289Z" fill="#151F3F"/>
<path d="M91.1783 115.921L90.8331 116.07L91.1783 115.921ZM89.4924 138.289L89.1565 138.12L89.0334 138.364L89.2279 138.556L89.4924 138.289ZM34.3069 105.669L34.4561 106.014L34.3069 105.669ZM2.79497 154.109L2.44972 154.259L2.79497 154.109ZM59.6664 164.361L59.8156 164.706L59.6664 164.361ZM83.0154 147.772L83.0911 147.404L82.8765 147.36L82.7323 147.525L83.0154 147.772ZM90.8331 116.07C93.7552 122.833 92.945 130.596 89.1565 138.12L89.8283 138.458C93.6886 130.792 94.5564 122.791 91.5236 115.772L90.8331 116.07ZM34.4561 106.014C46.6009 100.767 58.993 99.2926 69.2022 101.133C79.4147 102.974 87.3973 108.118 90.8331 116.07L91.5236 115.772C87.9565 107.516 79.7066 102.262 69.3356 100.393C58.9615 98.5226 46.4193 100.026 34.1577 105.324L34.4561 106.014ZM3.14021 153.96C-0.295535 146.009 1.42907 136.67 7.08773 127.971C12.7446 119.275 22.3112 111.262 34.4561 106.014L34.1577 105.324C21.8961 110.622 12.2054 118.725 6.45721 127.561C0.710789 136.394 -1.11737 146.003 2.44972 154.259L3.14021 153.96ZM59.5172 164.016C47.3724 169.263 34.9803 170.738 24.7711 168.898C14.5586 167.057 6.57596 161.912 3.14021 153.96L2.44972 154.259C6.01681 162.514 14.2667 167.768 24.6376 169.638C35.0118 171.508 47.554 170.004 59.8156 164.706L59.5172 164.016ZM82.7323 147.525C77.0175 154.058 69.0626 159.892 59.5172 164.016L59.8156 164.706C69.4555 160.541 77.5044 154.643 83.2984 148.02L82.7323 147.525ZM96.196 149.497C93.7578 149.497 88.7873 148.575 83.0911 147.404L82.9397 148.141C88.6028 149.305 93.6628 150.25 96.196 150.25V149.497ZM89.2279 138.556C92.4233 141.716 95.1126 144.586 96.4863 146.656C96.8282 147.172 97.0811 147.626 97.2398 148.015C97.4008 148.409 97.4518 148.703 97.429 148.91C97.4087 149.093 97.3313 149.217 97.173 149.311C96.9931 149.418 96.6861 149.497 96.196 149.497V150.25C96.7467 150.25 97.2104 150.164 97.5572 149.958C97.9258 149.739 98.1314 149.402 98.1766 148.992C98.2193 148.606 98.1183 148.176 97.9361 147.73C97.7518 147.279 97.4703 146.779 97.1131 146.24C95.6904 144.097 92.9463 141.175 89.7568 138.021L89.2279 138.556Z" fill="url(#paint0_linear_114_24293)"/>
<path d="M37.0075 127.388L32.6344 130.583L41.3042 142.246L45.483 139.193L37.0075 127.388ZM42.7774 144.263L45.1557 147.518L49.3102 144.483L46.9318 141.228L42.7774 144.263ZM47.5911 119.656L43.218 122.851L51.8878 134.514L56.0665 131.462L47.5911 119.656ZM53.3609 136.531L55.7392 139.786L59.8937 136.751L57.5154 133.496L53.3609 136.531Z" fill="white"/>
<mask id="path-4-inside-1_114_24293" fill="white">
<path fill-rule="evenodd" clip-rule="evenodd" d="M72.6647 54.868C72.4712 56.4 72.9002 57.8671 73.7546 59.0152C74.1276 59.5165 73.9468 60.37 73.403 60.6776C71.8782 61.5402 70.7658 63.0871 70.5294 64.9587C70.3253 66.5749 70.814 68.1189 71.764 69.2923C72.1676 69.7908 72.0075 70.6987 71.458 71.0296C70.003 71.9057 68.9492 73.4159 68.7199 75.2317C68.3225 78.3782 70.5511 81.2511 73.6976 81.6485C76.8441 82.0459 79.717 79.8173 80.1144 76.6708C80.3186 75.0547 79.8299 73.5107 78.8799 72.3373C78.4763 71.8388 78.6364 70.9308 79.1859 70.6C80.6409 69.7238 81.6946 68.2137 81.924 66.3979C82.1175 64.8659 81.6885 63.3988 80.8341 62.2506C80.4611 61.7494 80.6419 60.8959 81.1857 60.5883C82.7105 59.7257 83.8229 58.1788 84.0592 56.3071C84.4566 53.1606 82.2281 50.2877 79.0815 49.8903C75.935 49.4929 73.0621 51.7215 72.6647 54.868Z"/>
</mask>
<path d="M78.8799 72.3373L79.4645 71.864L78.8799 72.3373ZM71.764 69.2923L72.3486 68.819L71.764 69.2923ZM74.3581 58.5662C73.615 57.5676 73.2428 56.2939 73.411 54.9623L71.9185 54.7737C71.6997 56.5061 72.1855 58.1666 73.1512 59.4643L74.3581 58.5662ZM71.2757 65.053C71.4811 63.427 72.4464 62.0829 73.7733 61.3323L73.0326 60.0229C71.3099 60.9974 70.0506 62.7471 69.7832 64.8645L71.2757 65.053ZM72.3486 68.819C71.5222 67.7982 71.0983 66.4576 71.2757 65.053L69.7832 64.8645C69.5523 66.6922 70.1058 68.4395 71.1794 69.7656L72.3486 68.819ZM69.4662 75.3259C69.6654 73.7483 70.5799 72.4364 71.846 71.674L71.07 70.3852C69.4261 71.3751 68.2331 73.0834 67.9736 75.1374L69.4662 75.3259ZM73.7919 80.9023C71.0575 80.5569 69.1208 78.0603 69.4662 75.3259L67.9736 75.1374C67.5242 78.6961 70.0447 81.9453 73.6034 82.3948L73.7919 80.9023ZM79.3682 76.5766C79.0228 79.3109 76.5262 81.2476 73.7919 80.9023L73.6034 82.3948C77.162 82.8442 80.4112 80.3237 80.8607 76.7651L79.3682 76.5766ZM78.2953 72.8106C79.1217 73.8313 79.5456 75.172 79.3682 76.5766L80.8607 76.7651C81.0915 74.9373 80.5381 73.19 79.4645 71.864L78.2953 72.8106ZM81.1777 66.3036C80.9785 67.8812 80.064 69.1932 78.7978 69.9556L79.5739 71.2444C81.2178 70.2545 82.4108 68.5462 82.6702 66.4921L81.1777 66.3036ZM80.2306 62.6997C80.9737 63.6982 81.3459 64.972 81.1777 66.3036L82.6702 66.4921C82.889 64.7598 82.4032 63.0993 81.4375 61.8016L80.2306 62.6997ZM83.313 56.2129C83.1076 57.8389 82.1423 59.1829 80.8154 59.9336L81.5561 61.243C83.2787 60.2685 84.5381 58.5187 84.8055 56.4014L83.313 56.2129ZM78.9873 50.6366C81.7217 50.9819 83.6583 53.4785 83.313 56.2129L84.8055 56.4014C85.255 52.8427 82.7345 49.5935 79.1758 49.144L78.9873 50.6366ZM73.411 54.9623C73.7563 52.2279 76.2529 50.2912 78.9873 50.6366L79.1758 49.144C75.6171 48.6946 72.3679 51.2151 71.9185 54.7737L73.411 54.9623ZM81.4375 61.8016C81.4071 61.7607 81.3698 61.6548 81.402 61.5026C81.4342 61.3504 81.5113 61.2683 81.5561 61.243L80.8154 59.9336C80.3163 60.2159 80.0311 60.7144 79.9302 61.1911C79.8293 61.6679 79.8881 62.2393 80.2306 62.6997L81.4375 61.8016ZM79.4645 71.864C79.432 71.8238 79.3859 71.7088 79.4163 71.5363C79.4467 71.3637 79.5293 71.2712 79.5739 71.2444L78.7978 69.9556C78.2929 70.2596 78.0208 70.7865 77.9347 71.2752C77.8486 71.764 77.9242 72.3523 78.2953 72.8106L79.4645 71.864ZM71.1794 69.7656C71.2119 69.8058 71.258 69.9207 71.2276 70.0933C71.1972 70.2658 71.1145 70.3584 71.07 70.3852L71.846 71.674C72.3509 71.3699 72.6231 70.8431 72.7092 70.3543C72.7953 69.8656 72.7197 69.2773 72.3486 68.819L71.1794 69.7656ZM73.1512 59.4643C73.1816 59.5052 73.2189 59.6111 73.1867 59.7633C73.1545 59.9155 73.0774 59.9976 73.0326 60.0229L73.7733 61.3323C74.2724 61.05 74.5576 60.5515 74.6585 60.0748C74.7594 59.598 74.7006 59.0265 74.3581 58.5662L73.1512 59.4643Z" fill="white" mask="url(#path-4-inside-1_114_24293)"/>
<g filter="url(#filter0_d_114_24293)">
<path fill-rule="evenodd" clip-rule="evenodd" d="M284.616 26.1892C304.146 23.4017 321.948 37.746 323.378 57.4218C324.618 74.4732 313.074 89.5023 296.87 93.1118C298.184 97.0094 300.342 101.513 302.203 105.397C303.321 107.732 304.333 109.843 304.989 111.463C306.295 114.69 300.816 111.2 293.078 106.271C287.37 102.636 280.434 98.2184 274.085 95.1358L129.408 105.65C113.589 106.8 99.8938 94.7701 98.9946 78.9345C98.1583 64.2082 108.735 51.2928 123.337 49.2087L284.616 26.1892Z" fill="#55FFAD"/>
</g>
<path d="M121.802 77.5312C121.029 77.0046 119.524 76.4301 118.316 76.1204L117.619 77.2979C118.855 77.6646 120.37 78.3184 121.123 78.8475L121.802 77.5312ZM120.805 88.3841C121.426 86.4502 122.109 83.9034 122.581 81.7465L121.312 81.1219C120.781 83.4476 119.974 86.1311 119.375 87.7598L120.805 88.3841ZM117.797 71.892C118.979 72.306 120.464 73.0442 121.182 73.6181L121.906 72.3363C121.148 71.7675 119.693 71.1061 118.516 70.7318L117.797 71.892ZM126.395 72.7525L130.66 72.2092L130.873 73.8757L126.607 74.419L126.395 72.7525ZM132.483 74.9609L132.109 72.0247L135.283 71.6203L135.116 70.3109L131.942 70.7152L131.702 68.8305L130.253 69.015L130.494 70.8997L126.228 71.4431L125.988 69.5583L124.579 69.7377L124.819 71.6225L121.863 71.9991L122.03 73.3085L124.986 72.9319L125.36 75.8682L128.177 75.5093L128.357 76.918L123.04 77.5952L124.382 88.1301L125.671 87.9659L124.491 78.7007L128.519 78.1877L129.267 84.0602C128.322 83.2934 127.626 81.628 127.274 79.4955L125.389 79.7355L125.518 80.7474L126.649 80.6033C126.702 80.8587 126.754 81.1141 126.824 81.3471L126.487 81.3901C126.502 82.618 126.195 84.0079 125.339 84.8831C125.553 84.9769 125.908 85.234 126.072 85.4148C126.745 84.6839 127.108 83.7304 127.279 82.7005C127.666 83.6795 128.186 84.4398 128.792 84.9271C128.886 84.7136 129.114 84.4426 129.292 84.2586L129.676 87.2743L131.005 87.105L129.848 78.0184L134.074 77.4801L134.822 83.3526C133.763 82.6407 132.971 81.0077 132.591 78.8182L130.706 79.0583L130.835 80.0701L131.966 79.926C132.019 80.1814 132.089 80.4144 132.139 80.65L131.821 80.6904C131.832 81.8787 131.517 83.2091 130.636 84.0471C130.872 84.1582 131.227 84.4154 131.372 84.5986C132.047 83.8875 132.432 82.9514 132.608 81.9612C133.037 82.9549 133.595 83.6904 134.241 84.1726C134.352 83.9367 134.636 83.6384 134.834 83.4518L135.074 85.3366C135.105 85.5747 135.03 85.6245 134.792 85.6548C134.557 85.705 133.783 85.8035 132.947 85.8898C133.149 86.2069 133.366 86.643 133.468 86.9727C134.679 86.8185 135.47 86.6976 135.923 86.4584C136.374 86.1993 136.47 85.8444 136.384 85.1698L135.221 76.0436L129.686 76.7486L129.507 75.34L132.483 74.9609ZM140.955 70.0913L151.47 68.7519L151.966 72.6405L141.451 73.9799L140.955 70.0913ZM148.126 79.0571L154.772 78.2105L154.598 76.8416L147.951 77.6882L147.562 74.6329L153.673 73.8545L152.816 67.1289L139.325 68.8473L140.182 75.573L146.074 74.8224L147.098 82.8575C145.37 82.4324 143.968 81.4012 142.91 79.4191C143.022 78.5581 143.074 77.7046 143.09 76.876L141.5 76.8971C141.583 79.7695 141.055 83.2239 138.944 85.3275C139.267 85.488 139.826 85.9208 140.102 86.1881C141.372 84.9175 142.139 83.1866 142.569 81.3375C144.891 84.5297 148.023 84.897 152.229 84.3612L156.593 83.8052C156.62 83.3785 156.774 82.6934 156.947 82.3085C156.116 82.4345 152.744 82.8641 152.129 82.9425C150.879 83.1017 149.718 83.1689 148.639 83.0846L148.126 79.0571ZM174.406 66.3142L174.219 64.8461L157.276 67.0043L157.463 68.4724L166.232 67.3554C164.7 70.9982 161.727 74.7237 158.069 77.1857C158.409 77.4851 158.959 77.9998 159.225 78.3489C161.798 76.5494 163.958 74.1976 165.672 71.6608L167.077 82.6916L168.644 82.492L166.986 69.4771C167.389 68.6799 167.774 67.905 168.117 67.1153L174.406 66.3142ZM167.648 71.5098C170.187 72.759 173.421 74.7261 175.022 76.0545L176.048 74.7745C174.408 73.4512 171.109 71.6133 168.618 70.4185L167.648 71.5098ZM192.179 62.5987L191.835 62.7433L177.669 64.5478L177.853 65.9961L190.61 64.3711C189.302 65.9692 187.376 67.7871 185.59 68.9622L186.776 78.267C186.821 78.6241 186.715 78.7385 186.301 78.8114C185.847 78.8894 184.322 79.1038 182.667 79.254C182.956 79.6205 183.317 80.2398 183.45 80.6464C185.453 80.3911 186.76 80.2045 187.484 79.8704C188.23 79.5536 188.432 79.0843 188.303 78.0724L187.211 69.5017C189.502 67.8591 191.938 65.452 193.438 63.3052L192.179 62.5987ZM209.006 68.2376L209.484 71.9873L204.286 72.6494L203.808 68.8997L209.006 68.2376ZM211.035 73.0801L210.236 66.8108L202.28 67.8242L203.261 75.522L204.63 75.3476L204.448 73.9191L211.035 73.0801ZM210.86 63.3239L200.861 64.5976L201.025 65.8872L211.025 64.6135L210.86 63.3239ZM213.533 59.4552L197.264 61.5275L199.448 78.669L200.876 78.487L198.872 62.7541L212.264 61.0483L214.026 74.8766C214.066 75.194 213.962 75.3282 213.608 75.3935C213.273 75.4563 212.122 75.6029 210.867 75.7224C211.156 76.0889 211.475 76.6934 211.587 77.1025C213.293 76.8852 214.28 76.7191 214.865 76.4027C215.427 76.069 215.59 75.6047 215.474 74.6921L213.533 59.4552ZM232.305 70.2295L227.543 70.8361L227.354 69.3481L232.115 68.7416L232.305 70.2295ZM227.028 66.7888L231.789 66.1823L231.966 67.571L227.205 68.1776L227.028 66.7888ZM220.847 64.0075L220.665 62.579L224.93 62.0357L225.112 63.4642L220.847 64.0075ZM230.843 61.2826L231.025 62.7111L226.581 63.2772L226.399 61.8487L230.843 61.2826ZM235.478 67.1237L233.434 67.384L233.118 64.9041L226.889 65.6976L226.712 64.3088L232.624 63.5557L232.179 60.0639L226.267 60.817L226.121 59.6663L234.017 58.6605L233.863 57.4503L225.966 58.4561L225.764 56.8689L224.296 57.0559L224.498 58.6431L216.761 59.6287L216.915 60.8389L224.652 59.8533L224.799 61.004L219.125 61.7268L219.57 65.2186L225.244 64.4958L225.421 65.8846L219.191 66.6781L219.33 67.7693L225.56 66.9758L225.737 68.3646L217.622 69.3982L217.771 70.5687L225.886 69.5351L226.075 71.0231L219.667 71.8394L219.811 72.9702L226.219 72.1539L226.394 73.5229C226.437 73.8602 226.333 73.9944 225.958 74.0622C225.621 74.1052 224.433 74.2767 223.238 74.3886C223.479 74.7006 223.785 75.206 223.913 75.5728C225.559 75.363 226.589 75.2118 227.176 74.9152C227.743 74.6212 227.978 74.2485 227.862 73.3359L227.687 71.9669L232.449 71.3604L232.563 72.2532L234.031 72.0662L233.583 68.5546L235.627 68.2943L235.478 67.1237ZM243.41 63.3915L239.244 63.9222L238.715 59.7757L242.882 59.245L243.41 63.3915ZM240.017 69.9932L239.41 65.2317L243.577 64.7009L244.183 69.4625L240.017 69.9932ZM239.803 55.0202C239.783 55.9703 239.595 57.3451 239.419 58.3353L237.197 58.6183L239.037 73.0616L240.386 72.8898L240.186 71.3224L245.702 70.6199L244.061 57.7439L240.768 58.1634C240.997 57.2674 241.215 56.1307 241.428 55.1156L239.803 55.0202ZM253.755 56.4486L247.823 57.2042C248.042 56.2288 248.198 55.2411 248.313 54.2387L246.861 54.0808C246.572 56.8797 245.85 59.7541 244.743 61.6693C245.086 61.8272 245.771 62.1432 246.059 62.3484C246.635 61.3275 247.096 60.0389 247.482 58.6389L252.521 57.997C253.269 65.926 253.356 68.9796 252.789 69.7574C252.624 70.0405 252.411 70.108 252.014 70.1586C251.558 70.2167 250.367 70.3683 249.062 70.4135C249.393 70.7948 249.648 71.3672 249.743 71.7987C250.862 71.7167 251.997 71.6123 252.682 71.4445C253.349 71.299 253.782 71.0624 254.148 70.4512C254.818 69.378 254.686 66.2898 253.852 57.2025L253.755 56.4486ZM251.758 65.7758C250.974 64.6861 249.363 62.9559 248.072 61.6888L247.007 62.5099C248.28 63.7994 249.86 65.5942 250.607 66.7087L251.758 65.7758ZM258.409 53.255C258.974 54.0499 259.495 55.1328 259.671 55.8766L260.78 55.2513C260.588 54.5299 260.025 53.4323 259.427 52.7019L258.409 53.255ZM263.916 55.3358L256.099 56.3315L256.256 57.5615L264.073 56.5658L263.916 55.3358ZM262.964 64.792L263.386 68.1052L259.914 68.5474L259.492 65.2342L262.964 64.792ZM264.139 63.4124L258.028 64.1908L258.875 70.8371L260.184 70.6703L260.068 69.7577L264.869 69.1461L264.139 63.4124ZM257.858 62.7003L264.009 61.9169L263.857 60.7265L257.707 61.5099L257.858 62.7003ZM257.373 58.8911L257.522 60.0616L263.673 59.2782L263.523 58.1076L257.373 58.8911ZM275.01 59.6485L270.566 60.2146L269.98 55.6118L274.007 55.0988L273.833 53.7299L266.849 54.6194C267.038 53.7284 267.2 52.7804 267.302 51.84L265.796 51.7294C265.551 54.4017 264.843 57.0726 263.624 58.9012C264.044 59.0292 264.732 59.365 265.04 59.5677C265.618 58.5666 266.112 57.3747 266.488 56.0566L268.512 55.7988L269.098 60.4016L264.515 60.9854L264.694 62.394L269.277 61.8102L270.268 69.5874L271.736 69.4004L270.746 61.6232L275.19 61.0571L275.01 59.6485ZM292.624 55.6307L288.001 56.2195L287.758 54.3149L292.381 53.7261L292.624 55.6307ZM293.008 58.6463L288.385 59.2352L288.137 57.2909L292.76 56.702L293.008 58.6463ZM293.397 61.7016L288.774 62.2905L288.524 60.3263L293.147 59.7375L293.397 61.7016ZM286.342 53.326L287.651 63.6029L294.853 62.6855L293.544 52.4086L290.092 52.8483C290.175 52.2329 290.247 51.5381 290.323 50.8632L293.834 50.4159L293.673 49.1462L285.281 50.2152L285.442 51.4849L288.855 51.0502C288.854 51.6754 288.826 52.4048 288.782 53.0151L286.342 53.326ZM280.618 62.3617C280.532 63.7436 280.27 65.1682 279.779 66.2187C280.114 66.3171 280.665 66.5291 280.906 66.6799C281.37 65.5724 281.711 63.9765 281.816 62.4308L280.618 62.3617ZM281.077 58.2104L284.49 57.7757L284.74 59.7398L281.327 60.1745L281.077 58.2104ZM280.698 55.2344L284.11 54.7998L284.356 56.7242L280.943 57.1589L280.698 55.2344ZM286.111 60.6942L285.201 53.5519L282.483 53.8981C282.566 53.2827 282.656 52.5656 282.749 51.8683L285.031 51.5777L284.864 50.2682L276.65 51.3145L277.575 58.5758C277.921 61.2939 278.28 64.8975 277.492 67.5785C277.765 67.6647 278.391 67.9882 278.64 68.1984C279.548 65.3609 279.231 61.2883 278.865 58.4115L278.107 52.4596L281.321 52.0502C281.32 52.6754 281.274 53.4271 281.234 54.0573L279.369 54.2949L280.278 61.4372L282.54 61.1491L283.225 66.5256C283.248 66.7042 283.193 66.7514 283.015 66.7742C282.799 66.8218 282.224 66.8951 281.507 66.9663C281.728 67.2808 281.97 67.754 282.07 68.0639C283.042 67.9401 283.675 67.8393 284.088 67.6052C284.457 67.3364 284.533 66.984 284.458 66.3888L283.77 60.9924L286.111 60.6942ZM287.244 64.683C286.945 63.9147 286.237 62.6338 285.632 61.6826L284.663 62.1488C285.251 63.1223 285.941 64.4256 286.229 65.2559L287.244 64.683ZM289.353 63.8296C288.743 64.734 287.441 65.908 286.262 66.6227C286.592 66.8427 287.082 67.2037 287.333 67.4339C288.489 66.7018 289.866 65.4781 290.675 64.3872L289.353 63.8296ZM292.043 64.2128C293.131 64.8403 294.483 65.7972 295.169 66.4356L296.182 65.5204C295.476 64.8845 294.089 63.9723 293.046 63.3794L292.043 64.2128ZM304.858 58.7699L306.485 58.5627C305.57 55.6549 310.234 54.4359 309.852 51.4401C309.562 49.1586 307.594 47.9575 304.797 48.3139C302.634 48.5893 301.203 49.6991 300.07 51.2547L301.268 52.1102C302.225 50.7584 303.439 49.999 304.788 49.8271C306.811 49.5693 307.93 50.435 308.104 51.8039C308.392 54.0656 303.824 55.5548 304.858 58.7699ZM304.529 62.199C304.65 63.1513 305.463 63.6728 306.336 63.5616C307.209 63.4504 307.845 62.7444 307.723 61.7921C307.602 60.8398 306.812 60.3356 305.939 60.4468C305.066 60.558 304.408 61.2467 304.529 62.199Z" fill="#06102B"/>
<path d="M274.747 128.015C276.363 127.323 278.241 127.985 279.067 129.537L290.677 151.361C292.102 154.04 289.554 157.096 286.663 156.177L250.748 144.754C247.759 143.803 247.559 139.651 250.442 138.417L274.747 128.015Z" stroke="white" stroke-width="0.752193"/>
<defs>
<filter id="filter0_d_114_24293" x="94.4642" y="21.3582" width="233.489" height="95.8376" filterUnits="userSpaceOnUse" color-interpolation-filters="sRGB">
<feFlood flood-opacity="0" result="BackgroundImageFix"/>
<feColorMatrix in="SourceAlpha" type="matrix" values="0 0 0 0 0 0 0 0 0 0 0 0 0 0 0 0 0 0 127 0" result="hardAlpha"/>
<feOffset/>
<feGaussianBlur stdDeviation="2.24204"/>
<feComposite in2="hardAlpha" operator="out"/>
<feColorMatrix type="matrix" values="0 0 0 0 0.333333 0 0 0 0 1 0 0 0 0 0.68 0 0 0 0.6 0"/>
<feBlend mode="normal" in2="BackgroundImageFix" result="effect1_dropShadow_114_24293"/>
<feBlend mode="normal" in="SourceGraphic" in2="effect1_dropShadow_114_24293" result="shape"/>
</filter>
<linearGradient id="paint0_linear_114_24293" x1="4.36732" y1="104.552" x2="107.76" y2="130.725" gradientUnits="userSpaceOnUse">
<stop stop-color="#313A65"/>
<stop offset="1" stop-color="#313A65" stop-opacity="0"/>
</linearGradient>
</defs>
</svg>
