<svg width="321" height="197" viewBox="0 0 321 197" fill="none" xmlns="http://www.w3.org/2000/svg">
<path d="M102.323 51.9934C101.752 46.4308 105.099 41.2113 110.393 39.41L203.231 7.81951C214.574 3.95985 226.699 11.0706 228.868 22.8542C230.844 33.5911 223.683 43.8784 212.927 45.7526L116.318 62.588C109.463 63.7825 103.033 58.9148 102.323 51.9934Z" fill="#151F3F" stroke="url(#paint0_linear_114_24294)" stroke-width="0.752193"/>
<g filter="url(#filter0_d_114_24294)">
<path fill-rule="evenodd" clip-rule="evenodd" d="M41.4721 93.3118C20.0071 96.0687 5.337 116.388 9.47574 137.63C13.0609 156.031 29.5475 168.641 47.7193 167.902C47.4551 172.415 46.4689 177.82 45.6187 182.479C45.1087 185.273 44.6477 187.8 44.4208 189.705C43.9689 193.499 48.7491 188.23 55.4998 180.789C60.479 175.301 66.5303 168.631 72.3449 163.545L246.008 129.709C263.075 126.383 274.103 109.715 270.489 92.7063C267.123 76.8617 252.161 66.2516 236.095 68.3152L41.4721 93.3118Z" fill="#9DA4FF"/>
</g>
<path d="M27.7778 137.499L27.5204 136.062L30.001 135.618L30.2583 137.055L27.7778 137.499ZM27.0939 133.68L29.5744 133.235L29.8282 134.653L27.3477 135.097L27.0939 133.68ZM33.4724 132.537L33.7262 133.955L31.1473 134.417L30.8934 132.999L33.4724 132.537ZM34.1563 136.357L31.5773 136.819L31.32 135.381L33.899 134.92L34.1563 136.357ZM38.2623 129.445C38.0549 128.06 37.794 126.603 37.5296 125.126L36.1516 125.373C36.4195 126.869 36.6768 128.306 36.8842 129.692L34.5415 130.111L34.7882 131.489L37.0916 131.077C37.5772 134.81 37.6329 138.071 36.3361 140.701L36.3185 140.602C35.0276 140.996 33.7136 141.373 32.4551 141.721L32.1766 140.165L36.0352 139.474L35.8343 138.352L31.9757 139.043L31.7606 137.842L35.5799 137.158L34.5329 131.311L30.7136 131.995L30.4916 130.755L34.6652 130.008L34.4607 128.866L30.2871 129.613L30.0298 128.176C31.4387 127.761 32.7457 127.344 33.7665 126.918L32.8371 125.926C30.8904 126.742 27.4103 127.731 24.5248 128.41C24.7352 128.677 24.9576 129.125 25.0731 129.429C26.2275 129.182 27.4931 128.874 28.7354 128.55L28.9681 129.849L24.7157 130.611L24.9202 131.753L29.1725 130.991L29.3946 132.231L25.7132 132.891L26.7602 138.738L30.4416 138.078L30.6567 139.279L26.9358 139.946L27.1368 141.068L30.8576 140.401L31.1608 142.095C29.5746 142.541 28.1228 142.943 26.9592 143.253L27.4049 144.494C29.5675 143.863 32.5591 142.982 35.488 142.092C35.2547 142.377 35.0214 142.663 34.7452 142.936C35.1419 143.109 35.7418 143.509 36.0148 143.785C39.0144 140.566 39.1515 136.112 38.45 130.833L41.2652 130.329C42.348 137.511 42.5771 140.152 42.2265 140.804C42.0755 141.095 41.9089 141.186 41.5742 141.246C41.2002 141.313 40.3304 141.448 39.3713 141.539C39.6549 141.874 39.9216 142.456 40.0315 142.843C40.9477 142.74 41.8765 142.594 42.4136 142.416C42.9937 142.251 43.3592 142.023 43.6022 141.452C44.1235 140.505 43.8107 137.737 42.5502 129.449C42.5149 129.252 42.4359 128.697 42.4359 128.697L38.2623 129.445ZM47.1003 141.13L64.661 137.985L64.4742 136.942L46.9135 140.087L47.1003 141.13ZM60.1996 133.949L55.6322 134.766L55.4525 133.762L60.0198 132.945L60.1996 133.949ZM60.5345 135.819L55.9671 136.637L55.7803 135.593L60.3477 134.775L60.5345 135.819ZM50.0514 136.619L54.4219 135.837L54.6087 136.88L50.2383 137.663L50.0514 136.619ZM49.7236 134.788L54.0941 134.006L54.2739 135.01L49.9034 135.792L49.7236 134.788ZM48.1742 134.192L48.9921 138.759L62.1626 136.401L61.3447 131.834L48.1742 134.192ZM54.117 126.077L58.6253 125.27L58.8192 126.353L54.3109 127.16L54.117 126.077ZM53.7715 124.148L58.2798 123.341L58.4596 124.345L53.9513 125.152L53.7715 124.148ZM55.0018 131.019L54.8185 129.995L61.5514 128.79L61.3857 127.864L54.6528 129.07L54.473 128.066L60.4382 126.998L60.0821 125.009L62.2083 124.629L62.0426 123.703L59.9164 124.084L59.5745 122.174L53.6094 123.243L53.3908 122.022L51.934 122.283L52.1525 123.503L46.3055 124.55L46.4677 125.456L52.3147 124.409L52.4945 125.413L44.5804 126.83L44.746 127.756L52.6602 126.338L52.8541 127.421L46.8889 128.489L47.0511 129.395L53.0162 128.327L53.196 129.331L46.7584 130.484L46.9241 131.409L53.3617 130.256L53.545 131.28L45.5915 132.704L45.7748 133.728L63.3355 130.583L63.1522 129.559L55.0018 131.019ZM71.3108 127.692C70.6212 128.039 69.9118 128.39 69.2384 128.713L68.5404 124.815L70.7256 124.424L70.4788 123.046L68.2936 123.437L67.5886 119.5L66.1514 119.757L66.8565 123.695L64.3365 124.146L64.5833 125.524L67.1032 125.073L67.8717 129.365C66.8812 129.847 65.9785 130.252 65.2228 130.57L65.8935 131.933L68.1326 130.821L69.0527 135.96C69.102 136.235 69.0212 136.351 68.7259 136.404C68.4932 136.466 67.6467 136.618 66.6982 136.767C66.9655 137.126 67.2843 137.658 67.4104 138.021C68.7526 137.801 69.5724 137.614 70.0223 137.29C70.4918 136.962 70.6379 136.529 70.4898 135.702L69.4922 130.131C70.2177 129.757 70.9825 129.376 71.7277 128.999L71.3108 127.692ZM80.0961 126.261C79.7082 128.18 78.8772 129.893 77.7373 131.357C76.2715 130.319 75.0086 128.94 74.0326 127.347L80.0961 126.261ZM80.7676 124.678L80.5419 124.779L77.4117 125.34L76.8865 122.407L81.5916 121.564L81.3484 120.206L76.6432 121.048L76.0898 117.957L74.6526 118.215L75.2061 121.306L70.5993 122.13L70.8426 123.489L75.4493 122.664L75.9746 125.597L71.7616 126.352L72.0048 127.71L72.6545 127.594L72.599 127.624C73.7439 129.593 75.151 131.21 76.7935 132.44C75.4069 133.887 73.724 135.042 71.9061 135.896C72.2381 136.161 72.7017 136.708 72.9297 137.074C74.825 136.084 76.5725 134.837 78.0167 133.257C79.7027 134.276 81.624 134.907 83.7843 135.171C83.9303 134.738 84.2415 134.093 84.5036 133.742C82.4397 133.562 80.5951 133.019 78.9696 132.111C80.4489 130.16 81.4624 127.764 81.8063 124.919L80.7676 124.678ZM100.525 122.339C101.233 122.212 101.935 122.046 102.256 121.907C102.137 121.583 101.979 121.042 101.869 120.656C101.513 120.821 100.729 120.982 100.256 121.066L96.6337 121.715C96.0038 121.828 95.804 121.62 95.6771 120.911L95.2787 118.687L100.574 117.738L100.342 116.439L95.046 117.387L94.5596 114.67L93.1224 114.928L94.2329 121.129C94.529 122.783 95.1108 123.309 96.8432 122.998L100.525 122.339ZM87.8169 126.26C88.9963 126.72 90.5168 127.382 91.3081 127.83L91.951 126.881C91.1436 126.457 89.6069 125.818 88.4542 125.394L87.8169 126.26ZM87.328 124.438L91.4032 123.708L92.1153 127.685C90.6813 128.755 89.2671 129.82 88.2527 130.51C88.2157 129.623 88.1 128.749 87.9661 128.001L87.328 124.438ZM92.5753 122.198L85.744 123.421L86.6041 128.225C86.9038 129.898 87.1558 131.987 86.3016 133.684C86.6321 133.828 87.2356 134.248 87.4889 134.528C88.1325 133.356 88.2829 131.927 88.2472 130.592L88.9705 131.682C89.9602 130.855 91.1614 129.847 92.3233 128.847L92.8661 131.878C92.912 132.134 92.867 132.224 92.5914 132.273C92.3355 132.319 91.5318 132.483 90.5798 132.613C90.8401 132.932 91.1251 133.389 91.2709 133.749C92.4914 133.53 93.3541 133.355 93.8075 133.051C94.3003 132.739 94.3979 132.376 94.2639 131.628L92.5753 122.198ZM89.2246 117.556C89.7473 118.092 90.2806 118.688 90.7942 119.286L86.8078 120.285C87.5891 119.088 88.2979 117.6 88.8956 116.172L87.3506 115.941C86.8093 117.684 85.7955 119.511 85.4955 119.991C85.1758 120.475 84.894 120.831 84.5896 120.946C84.8302 121.269 85.1772 121.958 85.3089 122.239C85.7229 121.942 86.3978 121.74 91.6554 120.351C91.9995 120.798 92.2971 121.212 92.5251 121.577L93.6828 120.781C92.9827 119.707 91.5291 118.058 90.3248 116.892L89.2246 117.556ZM98.6162 130.971C97.6909 131.136 97.4926 131.05 97.3762 130.4L96.8474 127.447L102.36 126.46L102.124 125.141L96.6112 126.128L96.1917 123.785L94.7546 124.043L95.9391 130.658C96.2281 132.272 96.8014 132.637 98.711 132.295L102.196 131.671C103.83 131.378 104.143 130.631 103.862 128.04C103.45 128.012 102.841 127.898 102.464 127.722C102.742 129.846 102.672 130.244 101.845 130.392L98.6162 130.971ZM112.069 116.574L109.667 117.004L109.882 118.205L115.946 117.119L115.731 115.918L113.349 116.345L113.042 114.632L115.877 114.124L115.662 112.924L112.827 113.431L112.475 111.462L111.195 111.692L111.547 113.66L108.732 114.164L108.947 115.365L111.763 114.861L112.069 116.574ZM115.295 121.767L112.086 122.341L111.681 120.077L114.89 119.503L115.295 121.767ZM115.979 118.21L110.27 119.233L111.059 123.643L116.769 122.62L115.979 118.21ZM113.985 126.817C113.745 126.047 113.115 124.798 112.542 123.865L111.453 124.365C112.01 125.321 112.585 126.6 112.808 127.393L113.985 126.817ZM110.442 122.351C110.071 121.869 108.466 119.942 107.864 119.298L107.645 118.077L109.417 117.76L109.177 116.421L107.405 116.739L106.644 112.486L105.364 112.715L106.126 116.968L103.803 117.384L104.042 118.722L106.247 118.328C106.234 121.093 105.752 124.41 104.985 126.254C105.274 126.507 105.704 126.979 105.905 127.309C106.431 125.934 106.787 123.839 106.972 121.693L108.579 130.67L109.859 130.441L108.167 120.991C108.812 121.871 109.558 122.977 109.908 123.564L110.442 122.351ZM116.203 126.724C116.415 125.752 116.617 124.496 116.777 123.35L115.379 123.255C115.349 124.337 115.135 125.981 114.914 127.016L115.247 127.058C113.56 127.624 112.008 128.146 110.855 128.515L111.442 129.751C113.37 129.06 116.049 128.133 118.586 127.212L118.289 126.005L116.203 126.724ZM119.872 122.816C119.539 121.637 118.667 119.72 117.818 118.267L116.768 118.76C117.601 120.236 118.424 122.222 118.765 123.441L119.872 122.816ZM121.595 114.401L120.394 114.616L119.608 110.226L118.25 110.469L119.036 114.859L116.083 115.388L116.323 116.727L119.276 116.198L121.151 126.671C121.201 126.947 121.116 127.043 120.883 127.105C120.611 127.174 119.804 127.319 118.911 127.438C119.175 127.777 119.488 128.391 119.611 128.735C120.831 128.517 121.632 128.333 122.101 128.005C122.531 127.684 122.654 127.235 122.51 126.428L120.634 115.955L121.835 115.74L121.595 114.401ZM141.349 113.18L141.085 111.703L132.935 113.163C132.816 111.254 132.515 109.459 132.26 107.92L130.705 108.198C130.953 109.698 131.297 111.506 131.419 113.434L123.839 114.791L124.104 116.268L131.447 114.953C131.436 118.978 130.242 123.316 125.456 126.429C125.922 126.65 126.47 127.1 126.754 127.436C128.874 126 130.304 124.342 131.262 122.544C132.786 123.45 134.623 124.747 135.535 125.64L136.602 124.453C135.605 123.535 133.646 122.24 132.09 121.38L131.589 121.876C132.548 119.856 132.921 117.737 132.994 115.651C135.344 120.148 138.53 123.417 142.786 124.606C142.968 124.146 143.331 123.451 143.649 123.069C139.431 122.098 136.182 118.819 134.026 114.491L141.349 113.18ZM158.373 106.352C158.022 105.643 157.223 104.587 156.517 103.82L155.338 104.498C156.012 105.312 156.795 106.391 157.149 107.12L158.373 106.352ZM151.425 106.702L148.276 107.266L148.442 107.176C148.123 106.644 147.499 105.882 146.962 105.267L145.717 105.916C146.104 106.375 146.563 107.004 146.897 107.513L142.862 108.236L143.098 109.555L151.662 108.021L151.425 106.702ZM147.784 112.576C147.411 112.196 146.738 111.727 146.098 111.334C146.177 110.751 146.232 110.152 146.261 109.517L145.001 109.519C144.949 111.499 144.538 113.401 143.647 114.78C143.974 114.904 144.548 115.269 144.764 115.454C145.286 114.629 145.652 113.608 145.899 112.487C146.393 112.866 146.864 113.229 147.164 113.541L147.784 112.576ZM146.546 118.711C146.387 119.978 145.995 121.308 145.363 122.316C145.702 122.397 146.29 122.617 146.581 122.768C147.183 121.705 147.642 120.18 147.832 118.744L146.546 118.711ZM150.717 118.289C151.533 119.219 152.496 120.51 152.953 121.363L154.027 120.662C153.553 119.833 152.582 118.605 151.749 117.698L150.717 118.289ZM149.28 114.239L148.611 114.358C149.037 113.673 149.379 112.86 149.608 111.985C150.345 112.585 151.097 113.263 151.51 113.758L152.286 112.867C151.756 112.292 150.753 111.455 149.89 110.838C149.985 110.232 150.053 109.59 150.098 108.931L148.818 108.937C148.758 110.756 148.306 112.544 147.417 113.82C147.705 113.952 148.155 114.196 148.434 114.39L147.902 114.485L148.149 115.863L144.251 116.561L144.484 117.861L148.382 117.163L149.481 123.305L150.859 123.058L149.76 116.916L153.264 116.288L153.031 114.989L149.527 115.617L149.28 114.239ZM155.693 117.032L158.272 116.57L158.758 119.287L156.179 119.749L155.693 117.032ZM157.338 111.353L154.759 111.815L154.29 109.197L156.869 108.735L157.338 111.353ZM158.043 115.29L155.464 115.752L154.984 113.075L157.563 112.613L158.043 115.29ZM162.893 118.547L160.077 119.051L159.591 116.334L162.111 115.883L161.882 114.603L159.362 115.054L158.882 112.377L161.383 111.929L161.157 110.669L158.657 111.117L158.188 108.499L160.905 108.012L160.665 106.673L154.247 107.823C154.486 106.662 154.676 105.45 154.766 104.255L153.375 104.2C153.158 106.961 152.496 109.843 151.448 111.819C151.798 111.959 152.434 112.333 152.716 112.546C152.924 112.123 153.09 111.687 153.272 111.228L155.257 122.312L156.595 122.072L156.419 121.087L163.132 119.885L162.893 118.547ZM179.556 103.128L179.32 101.809L166.602 104.086C166.922 103.379 167.196 102.639 167.411 101.91L166.038 101.729C165.438 103.828 164.198 105.98 162.756 107.457C163.101 107.68 163.659 108.189 163.866 108.437C164.593 107.616 165.271 106.641 165.854 105.582L179.556 103.128ZM167.115 120.229C167.657 119.055 168.132 117.283 168.395 115.916L166.954 115.808C166.69 117.176 166.158 118.856 165.638 119.924L167.115 120.229ZM170.34 115.771C170.788 116.909 171.236 118.394 171.398 119.299L172.797 118.825C172.619 117.943 172.138 116.505 171.677 115.409L170.34 115.771ZM174.388 115.005C175.089 116.078 175.872 117.503 176.215 118.396L177.599 117.843C177.236 116.953 176.437 115.552 175.685 114.529L174.388 115.005ZM178.43 114.2C179.357 115.294 180.536 116.769 181.086 117.686L182.394 116.822C181.788 115.935 180.594 114.483 179.654 113.432L178.43 114.2ZM168.001 109.972L170.049 109.605L170.648 112.952L168.601 113.319L168.001 109.972ZM173.592 108.971L174.192 112.318L171.908 112.726L171.309 109.38L173.592 108.971ZM177.018 108.357L177.617 111.704L175.452 112.092L174.852 108.745L177.018 108.357ZM178.976 111.461L178.376 108.114L180.601 107.716L180.365 106.397L178.14 106.795L177.749 104.61L176.39 104.853L176.782 107.038L174.616 107.426L174.225 105.241L172.965 105.467L173.356 107.652L171.072 108.061L170.681 105.875L169.421 106.101L169.812 108.286L167.765 108.653L167.374 106.468L166.055 106.704L166.446 108.889L164.084 109.312L164.32 110.631L166.682 110.208L167.282 113.555L164.269 114.094L164.506 115.413L181.83 112.311L181.594 110.992L178.976 111.461ZM194.019 102.204C193.452 101.757 192.405 101.132 191.485 100.647C191.654 99.6614 191.766 98.5848 191.792 97.4829L190.336 97.5202C190.317 100.592 189.607 103.32 188.045 105.265C188.415 105.402 189.062 105.835 189.324 106.052C190.175 104.904 190.796 103.493 191.205 101.916C192.065 102.412 192.987 103.019 193.512 103.453L194.019 102.204ZM185.552 98.3768C184.933 99.91 183.504 101.913 182.151 103.212C182.453 103.422 182.919 103.867 183.168 104.127C184.611 102.65 186.117 100.511 186.979 98.6293L185.552 98.3768ZM186.737 102.269C185.945 104.544 184.442 106.926 182.887 108.566C183.179 108.839 183.755 109.447 183.946 109.717C184.588 108.993 185.206 108.131 185.793 107.213L187.479 116.623L188.837 116.38L186.866 105.375C187.364 104.412 187.78 103.443 188.117 102.489L186.737 102.269ZM196.38 109.035L200.751 108.253L200.529 107.012L196.158 107.795L195.566 104.487L194.798 104.625C195.579 103.652 196.167 102.511 196.539 101.184C197.852 102.046 199.278 103.091 200.063 103.845L200.887 102.661C200.013 101.863 198.302 100.706 196.829 99.8523C197.011 98.8242 197.073 97.6956 197.042 96.5023L195.612 96.5754C195.729 99.7241 195.053 102.304 193.326 104.117C193.629 104.225 194.123 104.482 194.464 104.685L194.208 104.731L195.681 112.96C194.335 112.591 193.205 111.615 192.241 109.634C192.24 108.72 192.185 107.734 192.058 106.68L190.642 106.832C191.087 110.45 190.874 113.231 189.162 115.245C189.516 115.405 190.194 115.791 190.434 115.992C191.356 114.791 191.879 113.397 192.1 111.793C193.921 114.474 196.095 114.816 199.028 114.291L202.296 113.705C202.269 113.324 202.372 112.656 202.513 112.305L198.871 112.958C198.261 113.067 197.663 113.133 197.114 113.13L196.38 109.035ZM219.459 95.292L219.199 93.8352L201.815 96.948L202.076 98.4048L209.596 97.0581L212.29 112.099L213.845 111.82L211.991 101.465C214.45 102.264 217.377 103.406 218.913 104.269L219.701 102.767C217.934 101.864 214.526 100.645 211.982 99.9428L211.779 100.284L211.152 96.7797L219.459 95.292ZM240.578 98.9672L232.506 100.413L231.935 97.2232L238.904 95.9753L238.654 94.5776L231.685 95.8255L231.114 92.6362C233.387 91.9446 235.466 91.1863 237.048 90.3748L235.738 89.4107C232.95 90.8648 227.333 92.3989 222.725 93.4475C222.923 93.7575 223.203 94.2966 223.332 94.6798C225.342 94.2183 227.542 93.6821 229.665 93.0581L230.208 96.0899L223.436 97.3026L223.686 98.7003L230.459 97.4876L231.03 100.677L222.938 102.126L223.196 103.563L231.287 102.114L232.066 106.465C232.14 106.878 231.988 107.048 231.555 107.125C231.105 107.226 229.573 107.521 227.909 107.758C228.216 108.109 228.608 108.71 228.8 109.102C230.87 108.751 232.123 108.486 232.809 108.12C233.496 107.753 233.733 107.264 233.546 106.22L232.764 101.85L240.835 100.404L240.578 98.9672ZM250.625 98.7936L252.239 98.5045C251.179 95.6467 255.774 94.1939 255.242 91.2212C254.837 88.9572 252.811 87.857 250.035 88.354C247.889 88.7383 246.516 89.9189 245.463 91.5296L246.703 92.3236C247.59 90.9253 248.764 90.1055 250.103 89.8658C252.111 89.5062 253.271 90.3143 253.515 91.6727C253.917 93.917 249.429 95.6349 250.625 98.7936ZM250.469 102.235C250.638 103.18 251.476 103.66 252.342 103.505C253.208 103.35 253.807 102.612 253.638 101.667C253.469 100.722 252.655 100.259 251.788 100.414C250.922 100.569 250.299 101.29 250.469 102.235Z" fill="#06102B"/>
<path fill-rule="evenodd" clip-rule="evenodd" d="M253.299 171.371C250.403 165.62 249.767 159.652 252.022 154.433C257.325 142.161 276.606 138.685 295.087 146.67C313.569 154.656 324.252 171.078 318.949 183.351C313.646 195.624 294.365 199.1 275.884 191.114C268.62 187.976 262.561 183.534 258.203 178.553C253.902 179.436 250.105 180.144 248.222 180.144C245.07 180.144 248.464 176.152 253.299 171.371Z" fill="#151F3F"/>
<path d="M252.022 154.433L251.677 154.284L252.022 154.433ZM253.299 171.371L253.635 171.202L253.758 171.446L253.563 171.639L253.299 171.371ZM295.087 146.67L294.938 147.016L295.087 146.67ZM318.949 183.351L319.294 183.5L318.949 183.351ZM275.884 191.114L275.735 191.459L275.884 191.114ZM258.203 178.553L258.128 178.184L258.342 178.14L258.486 178.305L258.203 178.553ZM252.367 154.583C250.168 159.673 250.775 165.522 253.635 171.202L252.963 171.54C250.031 165.718 249.367 159.631 251.677 154.284L252.367 154.583ZM294.938 147.016C285.756 143.048 276.39 141.935 268.679 143.325C260.965 144.716 254.953 148.598 252.367 154.583L251.677 154.284C254.394 147.996 260.673 144.004 268.546 142.585C276.422 141.165 285.937 142.307 295.236 146.325L294.938 147.016ZM318.604 183.202C321.19 177.217 319.896 170.178 315.622 163.608C311.349 157.04 304.12 150.983 294.938 147.016L295.236 146.325C304.535 150.343 311.889 156.49 316.252 163.198C320.615 169.903 322.011 177.212 319.294 183.5L318.604 183.202ZM276.033 190.769C285.215 194.736 294.581 195.849 302.292 194.459C310.006 193.069 316.018 189.186 318.604 183.202L319.294 183.5C316.577 189.789 310.298 193.78 302.425 195.2C294.55 196.619 285.034 195.477 275.735 191.459L276.033 190.769ZM258.486 178.305C262.804 183.241 268.817 187.651 276.033 190.769L275.735 191.459C268.424 188.3 262.317 183.827 257.92 178.8L258.486 178.305ZM248.222 179.768C250.057 179.768 253.81 179.071 258.128 178.184L258.279 178.921C253.995 179.801 250.152 180.52 248.222 180.52V179.768ZM253.563 171.639C251.143 174.032 249.113 176.199 248.079 177.758C247.822 178.145 247.634 178.484 247.516 178.771C247.397 179.063 247.365 179.269 247.379 179.404C247.392 179.515 247.435 179.583 247.529 179.639C247.645 179.708 247.859 179.768 248.222 179.768V180.52C247.798 180.52 247.428 180.454 247.145 180.286C246.84 180.105 246.669 179.824 246.632 179.486C246.597 179.172 246.68 178.83 246.82 178.486C246.963 178.137 247.179 177.753 247.452 177.342C248.535 175.71 250.62 173.491 253.034 171.104L253.563 171.639Z" fill="url(#paint1_linear_114_24294)"/>
<path d="M283.281 158.299C279.328 156.172 275.849 156.897 273.842 160.628C271.418 165.132 273.024 167.786 279.553 171.299L280.474 169.84C275.853 167.354 273.51 165.588 275.654 161.603C277.331 158.487 279.996 158.486 282.572 159.872C283.886 160.579 285.744 161.825 284.853 163.86C284.586 162.91 283.83 162.08 282.568 161.428C280.643 160.433 278.601 160.113 277.29 162.551C275.972 164.999 277.341 166.57 279.26 167.575C280.527 168.243 281.647 168.422 282.594 168.111L282.126 168.98L283.949 169.961L286.293 165.605C287.918 162.585 287.171 160.392 283.281 158.299ZM280.574 166.327C279.037 165.5 278.503 164.639 279.102 163.526C279.701 162.413 280.714 162.385 282.251 163.211C283.713 163.998 284.26 164.812 283.809 165.827L283.621 166.176C283.016 167.122 282.037 167.114 280.574 166.327ZM297.413 165.903C293.46 163.776 289.981 164.501 287.974 168.231C285.55 172.736 287.156 175.39 293.684 178.903L294.606 177.444C289.985 174.958 287.642 173.192 289.786 169.207C291.462 166.091 294.128 166.09 296.703 167.476C298.017 168.183 299.875 169.429 298.985 171.464C298.718 170.514 297.962 169.683 296.7 169.032C294.775 168.037 292.733 167.717 291.421 170.155C290.104 172.603 291.473 174.173 293.392 175.179C294.659 175.847 295.779 176.026 296.725 175.715L296.258 176.584L298.081 177.565L300.424 173.209C302.05 170.188 301.302 167.996 297.413 165.903ZM294.706 173.931C293.169 173.104 292.635 172.243 293.234 171.13C293.832 170.017 294.846 169.988 296.382 170.815C297.845 171.602 298.391 172.416 297.941 173.431L297.753 173.78C297.148 174.726 296.168 174.718 294.706 173.931Z" fill="white"/>
<defs>
<filter id="filter0_d_114_24294" x="3.87232" y="63.1555" width="272.207" height="132.716" filterUnits="userSpaceOnUse" color-interpolation-filters="sRGB">
<feFlood flood-opacity="0" result="BackgroundImageFix"/>
<feColorMatrix in="SourceAlpha" type="matrix" values="0 0 0 0 0 0 0 0 0 0 0 0 0 0 0 0 0 0 127 0" result="hardAlpha"/>
<feOffset/>
<feGaussianBlur stdDeviation="2.45178"/>
<feComposite in2="hardAlpha" operator="out"/>
<feColorMatrix type="matrix" values="0 0 0 0 0.615686 0 0 0 0 0.643137 0 0 0 0 1 0 0 0 0.6 0"/>
<feBlend mode="normal" in2="BackgroundImageFix" result="effect1_dropShadow_114_24294"/>
<feBlend mode="normal" in="SourceGraphic" in2="effect1_dropShadow_114_24294" result="shape"/>
</filter>
<linearGradient id="paint0_linear_114_24294" x1="100.689" y1="25.754" x2="224.533" y2="67.4745" gradientUnits="userSpaceOnUse">
<stop stop-color="#313A65"/>
<stop offset="1" stop-color="#313A65" stop-opacity="0"/>
</linearGradient>
<linearGradient id="paint1_linear_114_24294" x1="317.758" y1="145.824" x2="239.465" y2="165.644" gradientUnits="userSpaceOnUse">
<stop stop-color="#313A65"/>
<stop offset="1" stop-color="#313A65" stop-opacity="0"/>
</linearGradient>
</defs>
</svg>
