<svg width="775" height="366" viewBox="0 0 775 366" fill="none" xmlns="http://www.w3.org/2000/svg">
<g filter="url(#filter0_d_1_55)">
<path fill-rule="evenodd" clip-rule="evenodd" d="M86.1218 157.394C41.9898 157.799 7.38107 195.408 10.6383 239.422C13.4598 277.548 43.804 307.061 80.7806 309.948C79.1571 319.023 75.8564 329.729 73.011 338.958C71.3041 344.495 69.7611 349.5 68.8422 353.302C67.012 360.876 77.9627 351.36 93.4278 337.921C104.834 328.009 118.697 315.962 131.698 307.065L491.531 280.435C526.895 277.818 553.248 246.724 550.032 211.41C547.037 178.512 519.299 153.418 486.266 153.721L86.1218 157.394Z" fill="#9DA4FF"/>
</g>
<path d="M44.7483 247.954C47.2169 248.37 50.1576 249.319 51.6984 250.31L52.9694 248.072C51.3887 247.083 48.3729 246.218 45.9911 245.917L44.7483 247.954ZM55.7769 243.339C54.2362 242.348 51.3284 241.276 49.0171 240.811L47.6898 242.772C50.0057 243.317 52.9205 244.509 54.3837 245.545L55.7769 243.339ZM53.1875 250.423C51.1718 253.627 48.7731 257.133 47.0136 259.24L49.2777 260.95C51.2088 258.353 53.3772 255.02 55.1298 252.112L53.1875 250.423ZM69.1206 245.401L75.6694 245.017C75.1336 246.811 74.4358 248.575 73.8672 249.81L76.3405 250.306C77.3085 248.366 78.3729 245.339 79.2611 242.722L77.2341 242.32L76.7619 242.468L62.5863 243.3C63.0045 242.234 63.3805 241.13 63.6766 240.031L61.208 239.615L79.7361 238.527L79.5978 236.171L63.785 237.099L63.628 234.424L76.0865 233.693L75.9576 231.496L63.4991 232.228L63.3491 229.672L77.7643 228.826L77.6283 226.51L69.6021 226.981C70.3469 226.016 71.1221 224.888 71.8175 223.766L68.6137 223.112C68.1203 224.263 67.2158 225.919 66.4076 227.169L57.1835 227.71C56.5941 226.543 55.3869 225.091 54.2009 223.998L51.6992 225.067C52.5095 225.901 53.3314 226.934 53.989 227.898L46.0028 228.366L46.1387 230.682L60.3542 229.848L60.5042 232.404L48.2853 233.121L48.4142 235.317L60.6331 234.6L60.7902 237.275L45.217 238.189L45.3553 240.545L60.8087 239.638C59.824 243.342 57.9515 246.938 55.5319 249.404C56.1942 249.766 57.4789 250.492 58.0262 250.941C59.2666 249.546 60.4459 247.793 61.4139 245.853L66.0459 245.581L66.1491 247.338C66.2569 249.175 65.2062 255.167 55.0093 258.25C55.5635 258.818 56.4255 259.85 56.7801 260.43C64.6844 257.882 67.4097 253.115 67.9079 250.681C68.7697 253.075 72.0341 257.491 80.1798 259.056C80.4641 258.439 81.1947 257.234 81.6763 256.564C71.0714 254.743 69.3269 248.915 69.2214 247.118L69.1206 245.401ZM106.994 227.792L109.909 227.62L109.794 225.664L119.298 225.106L119.157 222.71L109.653 223.268L109.508 220.792L106.593 220.963L106.738 223.439L102.386 223.695L102.527 226.09L106.879 225.835L106.994 227.792ZM93.7766 228.567L96.6916 228.396L96.5768 226.44L101.249 226.165L101.108 223.77L96.4361 224.044L96.2908 221.568L93.3758 221.739L93.5211 224.215L84.2571 224.759L84.3977 227.154L93.6618 226.611L93.7766 228.567ZM94.4623 248.441C93.6187 251.135 91.9789 253.916 89.3526 255.593L91.5275 257.148C94.3769 255.178 95.8806 252.125 96.7923 249.226L94.4623 248.441ZM99.7347 254.984C99.7582 255.383 99.6454 255.51 99.1686 255.578C98.7693 255.601 97.2519 255.69 95.6124 255.746C96.0139 256.444 96.4695 257.379 96.6315 258.091C98.9076 257.957 100.385 257.87 101.32 257.415C102.292 256.917 102.534 256.262 102.455 254.904L101.895 245.361L99.1792 245.52L99.7347 254.984ZM102.965 249.264C104.325 251.268 105.689 254.033 106.152 255.769L108.416 254.755C107.916 253.061 106.479 250.421 105.119 248.417L102.965 249.264ZM107.863 248.055C110.517 250.264 113.546 253.412 114.913 255.535L117.229 254.037C115.783 251.918 112.72 248.892 110.071 246.764L107.863 248.055ZM92.3993 235.821L112.245 234.656L112.397 237.251L92.5516 238.416L92.3993 235.821ZM92.1391 231.388L111.985 230.223L112.133 232.739L92.2868 233.904L92.1391 231.388ZM120.568 243.343L120.428 240.947L98.9048 242.21C99.3418 241.463 99.7013 240.761 100.016 239.981L115.35 239.081L114.701 228.02L89.2643 229.513L89.9135 240.574L96.7817 240.171C96.4246 240.913 96.0275 241.658 95.5506 242.407L85.0088 243.026L85.1494 245.422L93.535 244.93C91.4583 247.095 88.5712 249.108 84.8175 250.69C85.4822 251.092 86.377 252.001 86.8162 252.657C91.4978 250.499 94.9017 247.734 97.2486 244.712L107.83 244.091C110.811 247.081 115.454 249.734 119.609 250.892C119.969 250.19 120.751 249.182 121.277 248.59C117.745 247.796 113.874 246.02 111.145 243.896L120.568 243.343ZM128.379 224.172L138.521 223.577L138.971 231.244L128.829 231.839L128.379 224.172ZM133.347 238.506C133.422 237.059 133.458 235.614 133.456 234.212L141.921 233.715L141.159 220.737L125.466 221.659L126.228 234.636L130.581 234.381C130.605 241.632 130.125 249.834 124.948 254.465C125.692 254.862 126.667 255.767 127.104 256.382C131.093 252.662 132.646 247.042 133.185 241.2L139.733 240.816C139.836 248.703 139.614 251.761 138.943 252.602C138.604 252.983 138.29 253.081 137.611 253.121C136.892 253.163 135.015 253.273 133.047 253.189C133.566 253.839 133.911 254.941 134.038 255.735C135.959 255.702 137.918 255.627 138.909 255.449C140.103 255.299 140.767 255.019 141.399 254.181C142.405 252.88 142.591 249.223 142.486 239.252C142.465 238.892 142.451 237.971 142.451 237.971L133.347 238.506ZM148.281 223.285L145.406 223.453L146.695 245.416L149.57 245.247L148.281 223.285ZM154.875 218.891L156.738 250.636C156.782 251.395 156.477 251.653 155.758 251.695C155.002 251.78 152.489 251.967 149.686 252.012C150.215 252.822 150.734 254.154 150.94 254.943C154.574 254.73 156.808 254.559 158.098 254.002C159.305 253.41 159.81 252.459 159.693 250.463L157.83 218.717L154.875 218.891ZM179.674 216.794C179.911 222.87 181.289 242.263 165.21 251.621C166.166 252.206 167.176 253.028 167.742 253.797C177.181 248.034 180.888 238.841 182.256 230.747C184.609 238.061 189.461 247.674 199.718 251.76C200.108 250.895 200.928 249.845 201.726 249.117C187.263 243.675 183.887 227.125 183.009 222.408C183.07 220.04 182.993 218.042 182.949 216.602L179.674 216.794ZM217.024 231.911L208.639 232.404L208.149 224.058L216.534 223.566L217.024 231.911ZM209.356 244.622L208.793 235.039L217.179 234.547L217.742 244.13L209.356 244.622ZM210.966 214.717C210.797 216.61 210.235 219.327 209.749 221.279L205.277 221.542L206.983 250.612L209.698 250.452L209.513 247.298L220.614 246.646L219.093 220.731L212.464 221.12C213.042 219.363 213.632 217.125 214.196 215.128L210.966 214.717ZM238.612 219.465L226.673 220.166C227.241 218.249 227.688 216.3 228.052 214.315L225.177 213.802C224.221 219.348 222.388 224.985 219.919 228.656C220.581 229.018 221.906 229.742 222.453 230.19C223.74 228.231 224.835 225.723 225.796 222.982L235.939 222.387C236.352 238.31 236.11 244.414 234.874 245.889C234.505 246.432 234.071 246.538 233.272 246.584C232.354 246.638 229.958 246.779 227.348 246.692C227.956 247.498 228.386 248.674 228.518 249.548C230.761 249.537 233.041 249.483 234.43 249.241C235.78 249.042 236.678 248.628 237.491 247.459C238.973 245.408 239.131 239.229 238.701 220.982L238.612 219.465ZM233.358 237.804C231.942 235.523 228.961 231.852 226.559 229.148L224.322 230.641C226.687 233.388 229.595 237.184 230.933 239.509L233.358 237.804ZM249.499 239.742L256.846 239.311L256.708 236.955L249.361 237.386L249.499 239.742ZM253.21 221.733L250.894 221.869L250.594 216.758L252.91 216.622L253.21 221.733ZM257.949 230.791C257.872 230.836 257.712 230.845 257.352 230.866L255.875 230.953C255.396 230.981 255.353 230.944 255.323 230.425L254.957 224.195L257.553 224.043L257.949 230.791ZM248.096 243.831L247.534 234.248C247.949 234.504 248.414 234.917 248.67 235.183C251.017 232.841 251.4 229.813 251.26 227.418L251.084 224.423L253.28 224.294L253.648 230.563C253.758 232.44 254.261 232.811 255.818 232.72L257.775 232.605L258.054 232.588L258.678 243.21L248.096 243.831ZM249.447 224.519L249.623 227.514C249.738 229.47 249.519 231.887 247.515 233.928L246.971 224.664L249.447 224.519ZM243.486 217.175L248.478 216.882L248.778 221.994L244.505 222.244L246.09 249.238L248.406 249.102L248.239 246.267L258.821 245.646L258.955 247.922L261.31 247.784L259.759 221.349L255.366 221.607L255.066 216.496L259.898 216.212L259.748 213.657L243.336 214.62L243.486 217.175ZM276.838 235.172L277.288 242.839L266.666 243.462L266.216 235.796L276.838 235.172ZM264.178 248.176L266.934 248.015L266.826 246.178L277.448 245.554L277.551 247.311L280.426 247.142L279.554 232.288L263.302 233.242L264.178 248.176ZM272.886 226.549L272.518 220.28L279.227 219.886L279.07 217.21L272.361 217.604L271.988 211.255L269.193 211.419L269.566 217.768L265.932 217.982C266.205 216.483 266.435 214.947 266.623 213.373L263.842 213.096C263.48 217.164 262.568 221.425 261.093 224.276C261.788 224.516 263.063 225.082 263.646 225.448C264.25 224.131 264.835 222.494 265.291 220.704L269.723 220.444L270.091 226.713L261.586 227.212L261.743 229.888L280.67 228.777L280.513 226.101L272.886 226.549ZM289.43 237.398L296.778 236.967L296.639 234.611L289.292 235.042L289.43 237.398ZM293.141 219.39L290.825 219.526L290.525 214.414L292.841 214.278L293.141 219.39ZM297.88 228.448C297.803 228.492 297.643 228.502 297.284 228.523L295.806 228.609C295.327 228.637 295.285 228.6 295.254 228.081L294.889 221.852L297.484 221.699L297.88 228.448ZM288.027 241.487L287.465 231.904C287.881 232.16 288.346 232.573 288.602 232.839C290.948 230.497 291.332 227.47 291.191 225.074L291.015 222.079L293.212 221.95L293.58 228.219C293.69 230.096 294.192 230.467 295.75 230.376L297.706 230.261L297.986 230.244L298.609 240.866L288.027 241.487ZM289.378 222.175L289.554 225.17C289.669 227.126 289.45 229.543 287.446 231.584L286.902 222.32L289.378 222.175ZM283.418 214.832L288.409 214.539L288.709 219.65L284.436 219.901L286.021 246.894L288.337 246.758L288.17 243.923L298.752 243.302L298.886 245.578L301.242 245.44L299.69 219.005L295.298 219.263L294.998 214.152L299.829 213.868L299.679 211.313L283.268 212.276L283.418 214.832ZM316.769 232.828L317.219 240.495L306.598 241.119L306.148 233.452L316.769 232.828ZM304.11 245.832L306.865 245.671L306.757 243.834L317.379 243.21L317.482 244.967L320.357 244.799L319.485 229.944L303.233 230.898L304.11 245.832ZM312.817 224.205L312.449 217.936L319.158 217.542L319.001 214.867L312.292 215.26L311.92 208.911L309.124 209.075L309.497 215.424L305.863 215.638C306.136 214.139 306.366 212.603 306.555 211.029L303.774 210.752C303.411 214.82 302.499 219.081 301.024 221.932C301.719 222.172 302.995 222.738 303.577 223.105C304.181 221.787 304.766 220.15 305.222 218.36L309.654 218.1L310.022 224.369L301.517 224.868L301.674 227.544L320.601 226.433L320.444 223.757L312.817 224.205ZM326.155 233.68C325.944 236.898 325.551 240.447 324.818 242.974C325.386 243.101 326.565 243.392 327.061 243.644C327.714 241.121 328.257 237.403 328.453 233.906L326.155 233.68ZM330.282 233.678C330.881 236.367 331.524 239.816 331.742 242.167L333.946 241.477C333.69 239.168 333.049 235.759 332.335 233.157L330.282 233.678ZM334.55 232.666C335.572 235.05 336.718 238.189 337.241 240.281L339.273 239.401C338.754 237.388 337.531 234.294 336.467 231.872L334.55 232.666ZM333.654 223.543C334.162 224.675 334.756 225.922 335.27 227.174L328.458 228.536C331.39 224.557 334.186 219.625 336.425 214.765L334.027 213.504C333.298 215.43 332.333 217.41 331.435 219.185L327.266 219.831C329.284 216.667 331.211 212.627 332.667 208.775L330.088 207.845C328.784 212.249 326.336 216.96 325.568 218.208C324.84 219.452 324.21 220.331 323.58 220.528C323.9 221.19 324.376 222.485 324.569 223.034C325.072 222.724 325.899 222.476 330.023 221.753C328.755 224.031 327.617 225.821 327.023 226.617C325.954 228.202 325.134 229.252 324.345 229.459C324.707 230.159 325.221 231.411 325.336 232.005C326.071 231.561 327.253 231.211 336.075 229.291C336.275 229.96 336.514 230.627 336.667 231.18L338.852 230.17C338.26 228.281 336.914 225.155 335.729 222.7L333.654 223.543ZM348.616 233.363C347.777 233.412 347.638 233.1 347.577 232.062L347.348 228.148L355.574 227.666L355.435 225.31L349.525 225.657L350.926 224.933C350.515 224.076 349.704 222.561 348.958 221.443L355.666 221.049L355.528 218.693L352.134 218.892C352.672 217.138 353.257 214.819 353.741 212.828L351.547 212.315C351.3 214.253 350.666 217.095 350.057 219.014L342.47 219.459L342.609 221.815L348.718 221.457L346.923 222.283C347.543 223.289 348.264 224.649 348.687 225.706L343.256 226.025L343.395 228.38L344.872 228.294L345.099 232.167C345.254 234.803 345.909 235.726 348.545 235.571L353.656 235.271C354.654 235.212 355.69 235.112 356.2 234.921C356.085 234.327 355.951 233.413 355.831 232.739C355.242 232.934 354.126 233.04 353.487 233.077L348.616 233.363ZM343.474 213.35C344.535 215.051 345.515 217.397 345.886 218.938L347.762 218.147C347.431 216.604 346.375 214.302 345.273 212.603L343.474 213.35ZM358.47 208.062L338.145 209.255L340.177 243.876L342.852 243.719L340.975 211.734L355.909 210.857L357.587 239.448C357.62 240.007 357.47 240.176 356.953 240.246C356.474 240.275 354.879 240.408 353.197 240.427C353.559 241.127 353.989 242.304 354.111 243.018C356.546 242.875 358.181 242.739 359.112 242.203C360.122 241.663 360.399 240.926 360.303 239.288L358.47 208.062ZM392.147 218.627L372.101 219.804L371.888 216.17L391.934 214.993L392.147 218.627ZM392.494 224.537L372.448 225.713L372.233 222.04L392.278 220.863L392.494 224.537ZM392.843 230.487L372.797 231.663L372.582 227.99L392.627 226.813L392.843 230.487ZM368.715 213.992L369.903 234.237L396.138 232.697L394.95 212.452L381.972 213.214C382.306 212.072 382.63 210.771 382.917 209.512L397.771 208.64L397.612 205.925L364.509 207.868L364.668 210.583L379.523 209.711C379.393 210.921 379.151 212.258 378.897 213.394L368.715 213.992ZM377.157 234.252C374.509 236.251 369.2 238.646 364.993 240.015C365.71 240.614 366.649 241.601 367.166 242.211C371.368 240.763 376.595 238.332 379.947 236.052L377.157 234.252ZM385.749 235.912C390.514 237.235 395.348 239.035 398.275 240.425L400.91 238.227C397.704 236.853 392.514 235.114 387.75 233.831L385.749 235.912ZM407.651 224.729L407.48 221.814L412.511 221.519L412.682 224.434L407.651 224.729ZM407.196 216.982L412.228 216.687L412.396 219.562L407.365 219.857L407.196 216.982ZM420.134 216.223L420.303 219.098L415.072 219.405L414.903 216.53L420.134 216.223ZM420.589 223.97L415.358 224.277L415.187 221.362L420.418 221.055L420.589 223.97ZM430.378 211.214C430.294 208.414 430.121 205.459 429.945 202.464L427.15 202.629C427.328 205.663 427.499 208.578 427.583 211.378L422.831 211.657L422.995 214.452L427.667 214.178C427.748 221.706 427.088 228.196 423.89 233.112L423.878 232.912C421.222 233.389 418.523 233.828 415.941 234.22L415.756 231.065L423.583 230.606L423.449 228.33L415.623 228.789L415.48 226.353L423.226 225.898L422.53 214.039L414.784 214.494L414.636 211.978L423.101 211.481L422.965 209.165L414.5 209.662L414.329 206.747C417.225 206.256 419.919 205.738 422.047 205.132L420.436 202.942C416.377 204.102 409.232 205.243 403.341 205.909C403.695 206.49 404.031 207.431 404.189 208.063C406.54 207.845 409.126 207.533 411.67 207.183L411.825 209.819L403.199 210.325L403.335 212.641L411.96 212.135L412.108 214.651L404.641 215.089L405.337 226.948L412.804 226.51L412.947 228.946L405.4 229.389L405.534 231.665L413.081 231.222L413.282 234.656C410.027 235.168 407.048 235.623 404.664 235.963L405.256 238.533C409.7 237.791 415.849 236.749 421.877 235.674C421.346 236.186 420.815 236.698 420.202 237.175C420.949 237.612 422.046 238.549 422.522 239.162C429.241 233.479 430.567 224.666 430.422 214.016L436.133 213.681C436.584 228.2 436.414 233.499 435.564 234.711C435.195 235.253 434.843 235.394 434.164 235.434C433.405 235.478 431.646 235.542 429.72 235.494C430.204 236.227 430.596 237.446 430.722 238.24C432.566 238.252 434.445 238.182 435.554 237.957C436.745 237.767 437.525 237.4 438.143 236.322C439.402 234.565 439.436 228.994 438.893 212.237C438.869 211.838 438.844 210.717 438.844 210.717L430.378 211.214ZM445.166 236.511L480.785 234.42L480.66 232.304L445.042 234.395L445.166 236.511ZM472.879 225.348L463.615 225.892L463.496 223.855L472.76 223.312L472.879 225.348ZM473.102 229.141L463.838 229.685L463.714 227.569L472.978 227.025L473.102 229.141ZM452.094 228.251L460.958 227.731L461.083 229.847L452.218 230.367L452.094 228.251ZM451.876 224.537L460.741 224.017L460.86 226.054L451.995 226.574L451.876 224.537ZM448.94 222.987L449.484 232.251L476.198 230.683L475.654 221.419L448.94 222.987ZM462.662 208.277L471.806 207.741L471.935 209.937L462.79 210.474L462.662 208.277ZM462.432 204.364L471.576 203.827L471.696 205.864L462.551 206.401L462.432 204.364ZM463.25 218.3L463.128 216.224L476.784 215.422L476.674 213.545L463.018 214.347L462.898 212.31L474.997 211.6L474.761 207.567L479.073 207.314L478.963 205.437L474.651 205.69L474.423 201.817L462.324 202.527L462.179 200.052L459.224 200.225L459.369 202.701L447.51 203.397L447.617 205.234L459.477 204.538L459.596 206.574L443.544 207.516L443.654 209.393L459.707 208.451L459.836 210.647L447.736 211.357L447.844 213.194L459.943 212.484L460.063 214.52L447.005 215.287L447.116 217.164L460.173 216.397L460.295 218.474L444.163 219.421L444.285 221.497L479.903 219.406L479.781 217.33L463.25 218.3ZM499.991 221.673L503.265 221.481C501.835 215.555 511.306 213.756 510.952 207.727C510.683 203.135 506.92 200.471 501.29 200.801C496.937 201.057 493.931 203.076 491.459 206.026L493.733 207.896C495.826 205.329 498.351 203.979 501.066 203.819C505.139 203.58 507.253 205.46 507.415 208.215C507.682 212.767 498.364 215.117 499.991 221.673ZM498.867 228.471C498.979 230.387 500.53 231.538 502.287 231.435C504.044 231.332 505.408 230.01 505.296 228.093C505.183 226.177 503.676 225.063 501.919 225.166C500.162 225.269 498.754 226.554 498.867 228.471Z" fill="#06102B"/>
<path fill-rule="evenodd" clip-rule="evenodd" d="M606.069 161.009C601.243 146.373 601.831 132.012 608.982 120.435C625.8 93.2087 672.549 91.7003 713.399 117.066C754.249 142.432 773.731 185.067 756.913 212.294C740.095 239.52 693.346 241.029 652.496 215.663C636.44 205.693 623.686 193.055 615.139 179.734C604.672 180.328 595.456 180.678 591.011 180.022C583.566 178.922 592.978 170.648 606.069 161.009Z" fill="#151F3F"/>
<path d="M608.982 120.435L608.131 119.91L608.131 119.91L608.982 120.435ZM606.069 161.009L607.019 160.696L607.246 161.384L606.662 161.814L606.069 161.009ZM713.399 117.066L712.872 117.916L713.399 117.066ZM756.913 212.294L757.764 212.819L757.764 212.819L756.913 212.294ZM652.496 215.663L651.968 216.512L651.968 216.512L652.496 215.663ZM615.139 179.734L615.082 178.736L615.665 178.703L615.98 179.194L615.139 179.734ZM609.833 120.961C602.877 132.223 602.259 146.261 607.019 160.696L605.119 161.322C600.227 146.485 600.786 131.801 608.131 119.91L609.833 120.961ZM712.872 117.916C692.591 105.322 670.883 99.4256 652.211 100.028C633.53 100.631 618.011 107.722 609.833 120.961L608.131 119.91C616.771 105.922 633.035 98.6457 652.146 98.0291C671.266 97.4122 693.358 103.444 713.927 116.217L712.872 117.916ZM756.062 211.768C764.241 198.528 763.658 181.436 755.872 164.398C748.09 147.368 733.153 130.509 712.872 117.916L713.927 116.217C734.496 128.989 749.724 146.131 757.691 163.567C765.654 180.994 766.403 198.833 757.764 212.819L756.062 211.768ZM653.024 214.813C673.304 227.407 695.012 233.303 713.684 232.701C732.365 232.098 747.884 225.007 756.062 211.768L757.764 212.819C749.124 226.807 732.86 234.083 713.749 234.7C694.63 235.317 672.537 229.285 651.968 216.512L653.024 214.813ZM615.98 179.194C624.441 192.381 637.085 204.916 653.024 214.813L651.968 216.512C635.796 206.47 622.93 193.73 614.297 180.274L615.98 179.194ZM591.157 179.032C595.477 179.671 604.571 179.332 615.082 178.736L615.195 180.733C604.774 181.324 595.435 181.686 590.864 181.011L591.157 179.032ZM606.662 161.814C600.108 166.64 594.564 171.062 591.583 174.385C590.843 175.21 590.285 175.942 589.913 176.573C589.532 177.217 589.392 177.678 589.381 177.979C589.372 178.219 589.438 178.365 589.615 178.509C589.844 178.696 590.306 178.907 591.157 179.032L590.864 181.011C589.854 180.862 588.981 180.573 588.351 180.059C587.669 179.503 587.351 178.747 587.382 177.905C587.411 177.126 587.735 176.327 588.191 175.556C588.654 174.77 589.305 173.93 590.094 173.05C593.232 169.551 598.939 165.017 605.476 160.204L606.662 161.814Z" fill="url(#paint0_linear_1_55)"/>
<path d="M678.397 175.381C684.298 170.002 696.818 185.109 705.125 175.318C711.025 168.364 706.592 160.511 696.253 151.738C686.05 143.082 676.528 139.095 667.911 149.252L676.146 156.239C680.028 151.664 684.169 153.368 690.849 159.035C696.751 164.043 697.937 167.095 696.113 169.246C691.144 175.102 679.501 158.22 670.573 168.743L678.397 175.381ZM667.351 172.541L662.15 178.671L669.973 185.309L675.175 179.178L667.351 172.541Z" fill="white"/>
<path d="M431.306 33.8038L436.548 40.9882C437.266 41.9725 438.508 42.4247 439.691 42.1323L448.325 39.9982C448.983 39.8356 449.608 40.3606 449.562 41.0367L448.96 49.9097C448.877 51.1254 449.538 52.2703 450.632 52.8067L458.618 56.7214C459.226 57.0197 459.368 57.8241 458.899 58.3125L452.734 64.7224C451.889 65.6006 451.659 66.9025 452.153 68.0167L455.754 76.1485C456.028 76.7682 455.62 77.4756 454.946 77.5477L446.103 78.4952C444.891 78.625 443.879 79.4748 443.54 80.6454L441.072 89.1894C440.884 89.8404 440.116 90.1198 439.554 89.742L432.171 84.7837C431.159 84.1044 429.837 84.1044 428.825 84.7837L421.442 89.742C420.88 90.1198 420.112 89.8404 419.924 89.1894L417.456 80.6454C417.117 79.4748 416.105 78.625 414.893 78.4952L406.05 77.5477C405.376 77.4756 404.968 76.7682 405.242 76.1485L408.843 68.0167C409.337 66.9025 409.107 65.6006 408.262 64.7224L402.097 58.3125C401.628 57.8241 401.77 57.0197 402.378 56.7214L410.363 52.8067C411.458 52.2703 412.119 51.1254 412.036 49.9097L411.434 41.0367C411.388 40.3606 412.013 39.8356 412.671 39.9982L421.305 42.1323C422.488 42.4247 423.73 41.9725 424.448 40.9882L429.69 33.8038C430.09 33.2564 430.906 33.2564 431.306 33.8038Z" stroke="white" stroke-width="2"/>
<path d="M97.1437 53.3036L287.586 12.6065C315.826 6.57167 342.928 26.7616 345.228 55.5475C347.331 81.8649 327.701 104.904 301.383 107.006L107.259 122.516C87.9083 124.062 70.9866 109.584 69.5197 90.2269C68.1946 72.7418 79.9956 56.9681 97.1437 53.3036Z" fill="#151F3F" stroke="url(#paint1_linear_1_55)" stroke-width="2"/>
<defs>
<filter id="filter0_d_1_55" x="0.425842" y="143.718" width="559.872" height="222.267" filterUnits="userSpaceOnUse" color-interpolation-filters="sRGB">
<feFlood flood-opacity="0" result="BackgroundImageFix"/>
<feColorMatrix in="SourceAlpha" type="matrix" values="0 0 0 0 0 0 0 0 0 0 0 0 0 0 0 0 0 0 127 0" result="hardAlpha"/>
<feOffset/>
<feGaussianBlur stdDeviation="5"/>
<feComposite in2="hardAlpha" operator="out"/>
<feColorMatrix type="matrix" values="0 0 0 0 0.615686 0 0 0 0 0.643137 0 0 0 0 1 0 0 0 0.6 0"/>
<feBlend mode="normal" in2="BackgroundImageFix" result="effect1_dropShadow_1_55"/>
<feBlend mode="normal" in="SourceGraphic" in2="effect1_dropShadow_1_55" result="shape"/>
</filter>
<linearGradient id="paint0_linear_1_55" x1="767.235" y1="122.971" x2="575.376" y2="142.32" gradientUnits="userSpaceOnUse">
<stop stop-color="#313A65"/>
<stop offset="1" stop-color="#313A65" stop-opacity="0"/>
</linearGradient>
<linearGradient id="paint1_linear_1_55" x1="73.1794" y1="28.2715" x2="338.642" y2="133.147" gradientUnits="userSpaceOnUse">
<stop stop-color="#313A65"/>
<stop offset="1" stop-color="#313A65" stop-opacity="0"/>
</linearGradient>
</defs>
</svg>
