<svg width="304" height="170" viewBox="0 0 304 170" fill="none" xmlns="http://www.w3.org/2000/svg">
<g filter="url(#filter0_d_114_24264)">
<path fill-rule="evenodd" clip-rule="evenodd" d="M43.257 65.6551C21.3561 65.8561 4.18114 84.5201 5.79757 106.362C7.1978 125.283 22.2566 139.929 40.6068 141.362C39.8011 145.865 38.1631 151.178 36.7511 155.758C35.904 158.505 35.1383 160.989 34.6823 162.876C33.774 166.635 39.2084 161.912 46.8831 155.243C52.5436 150.324 59.4227 144.346 65.8747 139.931L244.446 126.716C261.995 125.417 275.073 109.986 273.477 92.461C271.991 76.1352 258.226 63.6818 241.833 63.8323L43.257 65.6551Z" fill="#9DA4FF"/>
</g>
<path d="M21.2338 110.072C22.4681 110.28 23.9385 110.755 24.7089 111.251L25.3444 110.132C24.554 109.637 23.0461 109.205 21.8552 109.054L21.2338 110.072ZM26.7481 107.765C25.9778 107.269 24.5239 106.734 23.3682 106.501L22.7046 107.482C23.8625 107.754 25.3199 108.35 26.0515 108.868L26.7481 107.765ZM25.4534 111.307C24.4456 112.909 23.2462 114.662 22.3665 115.716L23.4985 116.571C24.4641 115.272 25.5483 113.606 26.4246 112.152L25.4534 111.307ZM33.42 108.796L36.6944 108.604C36.4265 109.501 36.0776 110.383 35.7933 111.001L37.0299 111.249C37.5139 110.279 38.0461 108.765 38.4902 107.457L37.4767 107.256L37.2406 107.33L30.1528 107.746C30.362 107.212 30.5499 106.661 30.698 106.111L29.4637 105.903L38.7277 105.359L38.6586 104.181L30.7522 104.645L30.6737 103.308L36.903 102.942L36.8385 101.844L30.6092 102.209L30.5342 100.932L37.7418 100.509L37.6738 99.3505L33.6607 99.5861C34.0331 99.1034 34.4207 98.5398 34.7684 97.9784L33.1666 97.6517C32.9198 98.2272 32.4676 99.0551 32.0635 99.6798L27.4514 99.9506C27.1567 99.3668 26.5532 98.6409 25.9601 98.0947L24.7093 98.629C25.1144 99.0459 25.5254 99.5627 25.8542 100.044L21.8611 100.279L21.929 101.437L29.0368 101.019L29.1118 102.297L23.0023 102.656L23.0668 103.754L29.1763 103.395L29.2548 104.733L21.4682 105.19L21.5373 106.368L29.264 105.915C28.7717 107.767 27.8354 109.565 26.6256 110.798C26.9568 110.978 27.5991 111.341 27.8728 111.566C28.493 110.868 29.0826 109.992 29.5666 109.022L31.8826 108.886L31.9342 109.765C31.9881 110.683 31.4628 113.679 26.3643 115.22C26.6414 115.505 27.0724 116.02 27.2497 116.31C31.2019 115.037 32.5645 112.653 32.8136 111.436C33.2445 112.633 34.8767 114.841 38.9496 115.624C39.0917 115.315 39.457 114.712 39.6978 114.378C34.3954 113.467 33.5231 110.553 33.4704 109.655L33.42 108.796ZM52.3566 99.9913L53.8141 99.9057L53.7567 98.9274L58.5085 98.6485L58.4382 97.4506L53.6864 97.7295L53.6137 96.4916L52.1562 96.5772L52.2289 97.815L50.0526 97.9428L50.1229 99.1407L52.2992 99.013L52.3566 99.9913ZM45.748 100.379L47.2055 100.294L47.1481 99.3153L49.484 99.1782L49.4137 97.9803L47.0777 98.1174L47.0051 96.8795L45.5476 96.9651L45.6202 98.2029L40.9882 98.4748L41.0585 99.6728L45.6906 99.4009L45.748 100.379ZM46.0908 110.316C45.669 111.663 44.8491 113.054 43.536 113.892L44.6234 114.67C46.0481 113.684 46.8 112.158 47.2558 110.709L46.0908 110.316ZM48.727 113.587C48.7388 113.787 48.6824 113.85 48.444 113.884C48.2443 113.896 47.4856 113.941 46.6659 113.969C46.8666 114.318 47.0944 114.785 47.1754 115.141C48.3135 115.074 49.0522 115.031 49.5196 114.803C50.0059 114.554 50.1269 114.226 50.0871 113.548L49.807 108.776L48.4493 108.855L48.727 113.587ZM50.3423 110.728C51.0221 111.73 51.7043 113.112 51.9356 113.98L53.0678 113.473C52.8177 112.626 52.0992 111.306 51.4193 110.304L50.3423 110.728ZM52.791 110.123C54.118 111.227 55.6329 112.801 56.3162 113.863L57.4743 113.114C56.751 112.055 55.2197 110.542 53.8951 109.477L52.791 110.123ZM45.0593 104.006L54.9822 103.423L55.0584 104.721L45.1355 105.304L45.0593 104.006ZM44.9292 101.79L54.8521 101.207L54.926 102.465L45.0031 103.047L44.9292 101.79ZM59.1439 107.767L59.0736 106.569L48.3121 107.201C48.5306 106.827 48.7103 106.476 48.8678 106.086L56.5346 105.636L56.2099 100.106L43.4918 100.852L43.8164 106.383L47.2505 106.181C47.072 106.552 46.8734 106.924 46.635 107.299L41.3641 107.608L41.4344 108.806L45.6272 108.56C44.5888 109.643 43.1453 110.649 41.2684 111.441C41.6008 111.642 42.0482 112.096 42.2678 112.424C44.6086 111.345 46.3105 109.963 47.484 108.451L52.7749 108.141C54.265 109.636 56.5867 110.962 58.6642 111.542C58.844 111.19 59.2351 110.687 59.4982 110.391C57.7319 109.994 55.7966 109.105 54.432 108.044L59.1439 107.767ZM63.0489 98.1817L68.1202 97.884L68.3452 101.717L63.274 102.015L63.0489 98.1817ZM65.5332 105.348C65.5708 104.625 65.5885 103.903 65.5875 103.202L69.8202 102.953L69.4393 96.4643L61.5928 96.9248L61.9737 103.414L64.1499 103.286C64.1624 106.911 63.9223 111.013 61.3335 113.328C61.7058 113.527 62.1931 113.979 62.4115 114.287C64.406 112.427 65.1826 109.616 65.452 106.695L68.7263 106.503C68.7775 110.447 68.6669 111.976 68.331 112.397C68.1618 112.587 68.0044 112.636 67.665 112.656C67.3056 112.677 66.3673 112.732 65.3831 112.69C65.6426 113.015 65.8152 113.566 65.8785 113.963C66.8392 113.947 67.8187 113.909 68.3143 113.82C68.911 113.745 69.2433 113.605 69.5593 113.186C70.0621 112.535 70.1551 110.707 70.1029 105.721C70.0923 105.542 70.0853 105.081 70.0853 105.081L65.5332 105.348ZM73 97.7378L71.5625 97.8222L72.2071 108.803L73.6446 108.719L73 97.7378ZM76.297 95.5408L77.2286 111.414C77.2509 111.793 77.0982 111.922 76.7388 111.943C76.3607 111.985 75.104 112.079 73.7029 112.101C73.9671 112.507 74.2266 113.172 74.3299 113.567C76.1467 113.46 77.2636 113.375 77.9084 113.097C78.5121 112.801 78.7647 112.325 78.7061 111.327L77.7744 95.4541L76.297 95.5408ZM88.6968 94.4925C88.8151 97.5307 89.5044 107.227 81.4648 111.906C81.9427 112.199 82.4477 112.61 82.7307 112.994C87.45 110.112 89.3038 105.516 89.9878 101.469C91.1642 105.126 93.59 109.932 98.7185 111.975C98.9135 111.543 99.3234 111.018 99.7228 110.654C92.4909 107.933 90.8031 99.6579 90.3642 97.2996C90.3949 96.1157 90.3563 95.1163 90.334 94.3964L88.6968 94.4925ZM107.372 102.051L103.179 102.297L102.934 98.1245L107.127 97.8784L107.372 102.051ZM103.538 108.407L103.256 103.615L107.449 103.369L107.73 108.161L103.538 108.407ZM104.343 93.4539C104.258 94.4005 103.977 95.7593 103.734 96.7352L101.498 96.8664L102.351 111.401L103.709 111.322L103.616 109.744L109.167 109.419L108.406 96.461L105.092 96.6555C105.381 95.7771 105.676 94.6579 105.958 93.6596L104.343 93.4539ZM118.166 95.828L112.196 96.1784C112.48 95.2201 112.704 94.2453 112.886 93.253L111.448 92.9968C110.97 95.7695 110.054 98.5881 108.819 100.424C109.15 100.604 109.812 100.966 110.086 101.191C110.73 100.211 111.277 98.957 111.758 97.5865L116.829 97.2888C117.036 105.25 116.915 108.303 116.297 109.04C116.112 109.311 115.895 109.364 115.496 109.388C115.036 109.415 113.839 109.485 112.534 109.441C112.838 109.844 113.053 110.433 113.118 110.87C114.24 110.864 115.38 110.837 116.075 110.716C116.75 110.616 117.199 110.41 117.605 109.825C118.346 108.8 118.425 105.71 118.21 96.5867L118.166 95.828ZM115.539 104.998C114.83 103.857 113.34 102.021 112.139 100.669L111.021 101.416C112.203 102.789 113.657 104.687 114.326 105.85L115.539 104.998ZM123.609 105.966L127.283 105.751L127.214 104.573L123.54 104.788L123.609 105.966ZM125.465 96.9623L124.307 97.0302L124.157 94.4746L125.315 94.4067L125.465 96.9623ZM127.834 101.491C127.795 101.514 127.716 101.518 127.536 101.529L126.797 101.572C126.558 101.586 126.536 101.567 126.521 101.308L126.338 98.1932L127.636 98.117L127.834 101.491ZM122.908 108.011L122.627 103.219C122.834 103.347 123.067 103.554 123.195 103.687C124.368 102.516 124.56 101.002 124.49 99.8043L124.402 98.3069L125.5 98.2424L125.684 101.377C125.739 102.315 125.99 102.501 126.769 102.455L127.747 102.398L127.887 102.39L128.199 107.701L122.908 108.011ZM123.583 98.3549L123.671 99.8523C123.728 100.831 123.619 102.039 122.617 103.06L122.345 98.4276L123.583 98.3549ZM120.603 94.6832L123.099 94.5367L123.249 97.0923L121.112 97.2177L121.904 110.715L123.062 110.647L122.979 109.229L128.27 108.918L128.337 110.056L129.515 109.987L128.739 96.7701L126.543 96.899L126.393 94.3434L128.809 94.2016L128.734 92.9238L120.528 93.4054L120.603 94.6832ZM137.279 103.682L137.504 107.515L132.193 107.827L131.968 103.993L137.279 103.682ZM130.949 110.184L132.327 110.103L132.273 109.184L137.583 108.873L137.635 109.751L139.073 109.667L138.637 102.24L130.511 102.716L130.949 110.184ZM135.303 99.3699L135.119 96.2353L138.473 96.0384L138.394 94.7008L135.04 94.8976L134.854 91.7231L133.456 91.8051L133.643 94.9797L131.826 95.0863C131.962 94.337 132.077 93.569 132.171 92.7821L130.781 92.6433C130.6 94.6774 130.144 96.8078 129.406 98.2335C129.754 98.3533 130.391 98.6365 130.683 98.8197C130.984 98.1609 131.277 97.3423 131.505 96.4474L133.721 96.3174L133.905 99.452L129.652 99.7016L129.731 101.039L139.195 100.484L139.116 99.1461L135.303 99.3699ZM143.575 104.795L147.248 104.579L147.179 103.401L143.506 103.617L143.575 104.795ZM145.43 95.7903L144.272 95.8583L144.122 93.3027L145.28 93.2347L145.43 95.7903ZM147.8 100.319C147.761 100.342 147.681 100.346 147.502 100.357L146.763 100.4C146.523 100.414 146.502 100.395 146.487 100.136L146.304 97.0213L147.602 96.9451L147.8 100.319ZM142.873 106.839L142.592 102.047C142.8 102.175 143.033 102.382 143.161 102.515C144.334 101.344 144.526 99.8303 144.455 98.6324L144.367 97.1349L145.465 97.0705L145.649 100.205C145.705 101.143 145.956 101.329 146.734 101.283L147.713 101.226L147.853 101.218L148.164 106.529L142.873 106.839ZM143.549 97.183L143.637 98.6804C143.694 99.6587 143.585 100.867 142.583 101.888L142.311 97.2557L143.549 97.183ZM140.568 93.5113L143.064 93.3648L143.214 95.9204L141.078 96.0458L141.87 109.543L143.028 109.475L142.945 108.057L148.236 107.747L148.303 108.885L149.481 108.815L148.705 95.5982L146.509 95.7271L146.359 93.1715L148.774 93.0297L148.699 91.7519L140.493 92.2335L140.568 93.5113ZM157.244 102.51L157.469 106.343L152.159 106.655L151.934 102.821L157.244 102.51ZM150.915 109.012L152.292 108.931L152.238 108.012L157.549 107.701L157.601 108.579L159.038 108.495L158.602 101.068L150.476 101.545L150.915 109.012ZM155.268 98.198L155.084 95.0634L158.439 94.8665L158.36 93.5288L155.006 93.7257L154.82 90.5512L153.422 90.6332L153.608 93.8078L151.791 93.9144C151.928 93.1651 152.043 92.3971 152.137 91.6102L150.746 91.4714C150.565 93.5055 150.109 95.6359 149.372 97.0616C149.719 97.1814 150.357 97.4645 150.648 97.6478C150.95 96.989 151.243 96.1704 151.471 95.2755L153.687 95.1455L153.871 98.2801L149.618 98.5297L149.697 99.8674L159.16 99.3119L159.082 97.9742L155.268 98.198ZM161.937 102.935C161.832 104.544 161.635 106.319 161.269 107.583C161.553 107.646 162.142 107.792 162.39 107.917C162.717 106.656 162.988 104.797 163.086 103.048L161.937 102.935ZM164.001 102.934C164.3 104.279 164.622 106.003 164.731 107.179L165.833 106.834C165.705 105.679 165.384 103.975 165.027 102.674L164.001 102.934ZM166.135 102.429C166.646 103.621 167.219 105.19 167.48 106.236L168.496 105.796C168.237 104.789 167.625 103.243 167.093 102.032L166.135 102.429ZM165.687 97.867C165.94 98.4331 166.238 99.0568 166.495 99.6828L163.089 100.364C164.555 98.3742 165.953 95.908 167.072 93.4783L165.873 92.8474C165.509 93.8104 165.026 94.8004 164.577 95.6882L162.493 96.011C163.502 94.4291 164.465 92.4092 165.193 90.4832L163.904 90.018C163.252 92.22 162.028 94.5757 161.644 95.1993C161.279 95.8217 160.965 96.2609 160.65 96.3595C160.81 96.6907 161.048 97.3379 161.144 97.6127C161.396 97.4577 161.809 97.3333 163.871 96.9718C163.237 98.1109 162.668 99.0058 162.371 99.4039C161.837 100.197 161.427 100.721 161.032 100.825C161.213 101.175 161.47 101.801 161.528 102.098C161.895 101.876 162.486 101.701 166.897 100.741C166.997 101.076 167.117 101.409 167.193 101.685L168.285 101.18C167.99 100.236 167.317 98.6728 166.724 97.4455L165.687 97.867ZM173.167 102.777C172.748 102.802 172.679 102.645 172.648 102.126L172.534 100.17L176.646 99.9283L176.577 98.7504L173.622 98.9238L174.322 98.5622C174.117 98.1335 173.712 97.3759 173.338 96.8168L176.693 96.6199L176.624 95.442L174.926 95.5416C175.196 94.6643 175.488 93.5052 175.73 92.5093L174.633 92.2531C174.51 93.222 174.193 94.643 173.888 95.6025L170.095 95.8252L170.164 97.0032L173.219 96.8238L172.321 97.2371C172.631 97.7398 172.992 98.4199 173.203 98.9484L170.488 99.1078L170.557 100.286L171.296 100.242L171.409 102.179C171.487 103.497 171.814 103.958 173.132 103.881L175.688 103.731C176.187 103.702 176.705 103.651 176.96 103.556C176.902 103.259 176.835 102.802 176.775 102.465C176.481 102.563 175.923 102.615 175.603 102.634L173.167 102.777ZM170.597 92.7705C171.127 93.6209 171.617 94.7942 171.802 95.5647L172.741 95.169C172.575 94.3974 172.047 93.2464 171.496 92.3972L170.597 92.7705ZM178.095 90.1266L167.932 90.7231L168.948 108.033L170.286 107.955L169.347 91.9623L176.814 91.5241L177.653 105.819C177.67 106.099 177.595 106.184 177.336 106.219C177.097 106.233 176.299 106.3 175.458 106.309C175.639 106.659 175.854 107.247 175.915 107.604C177.133 107.533 177.95 107.465 178.415 107.197C178.92 106.927 179.059 106.558 179.011 105.74L178.095 90.1266ZM194.933 95.409L184.91 95.9973L184.804 94.1805L194.826 93.5922L194.933 95.409ZM195.107 98.364L185.084 98.9523L184.976 97.1154L194.999 96.5271L195.107 98.364ZM195.281 101.339L185.258 101.927L185.151 100.09L195.173 99.502L195.281 101.339ZM183.217 93.0916L183.811 103.214L196.929 102.444L196.335 92.3216L189.846 92.7025C190.013 92.1317 190.175 91.4811 190.318 90.8516L197.745 90.4157L197.666 89.058L181.114 90.0295L181.194 91.3872L188.621 90.9512C188.556 91.5561 188.435 92.2243 188.308 92.7927L183.217 93.0916ZM187.438 103.222C186.114 104.221 183.46 105.419 181.356 106.103C181.715 106.402 182.184 106.896 182.443 107.201C184.544 106.477 187.157 105.262 188.833 104.121L187.438 103.222ZM191.734 104.051C194.117 104.713 196.534 105.613 197.997 106.308L199.315 105.209C197.712 104.522 195.116 103.652 192.735 103.011L191.734 104.051ZM202.685 98.46L202.6 97.0026L205.115 96.8549L205.201 98.3124L202.685 98.46ZM202.458 94.5867L204.974 94.4391L205.058 95.8766L202.542 96.0242L202.458 94.5867ZM208.927 94.207L209.011 95.6445L206.396 95.7981L206.311 94.3605L208.927 94.207ZM209.154 98.0803L206.539 98.2339L206.453 96.7764L209.069 96.6229L209.154 98.0803ZM214.049 91.7026C214.007 90.3026 213.92 88.8252 213.832 87.3278L212.434 87.4098C212.524 88.9272 212.609 90.3847 212.651 91.7846L210.275 91.9241L210.357 93.3217L212.693 93.1846C212.734 96.9486 212.403 100.194 210.805 102.651L210.799 102.552C209.471 102.79 208.121 103.009 206.83 103.205L206.738 101.628L210.651 101.398L210.584 100.26L206.671 100.49L206.599 99.2721L210.473 99.0447L210.125 93.1149L206.251 93.3423L206.178 92.0845L210.41 91.836L210.342 90.678L206.11 90.9264L206.024 89.469C207.472 89.2237 208.819 88.9643 209.883 88.6614L209.078 87.5667C207.048 88.1467 203.476 88.717 200.53 89.0502C200.707 89.3403 200.875 89.8112 200.954 90.1272C202.13 90.0181 203.423 89.8621 204.695 89.6872L204.772 91.005L200.459 91.2581L200.527 92.4161L204.84 92.163L204.914 93.4208L201.18 93.64L201.528 99.5698L205.262 99.3506L205.333 100.569L201.56 100.79L201.627 101.928L205.4 101.707L205.501 103.424C203.873 103.679 202.384 103.907 201.192 104.077L201.488 105.362C203.71 104.991 206.784 104.47 209.798 103.933C209.533 104.189 209.267 104.445 208.961 104.683C209.334 104.902 209.882 105.37 210.121 105.677C213.48 102.835 214.143 98.4286 214.071 93.1037L216.926 92.9361C217.152 100.195 217.067 102.845 216.642 103.451C216.457 103.722 216.281 103.793 215.942 103.812C215.562 103.835 214.683 103.866 213.72 103.843C213.961 104.209 214.157 104.819 214.221 105.216C215.143 105.222 216.082 105.187 216.637 105.074C217.232 104.979 217.622 104.796 217.931 104.257C218.561 103.378 218.577 100.592 218.306 92.214C218.294 92.0143 218.281 91.4541 218.281 91.4541L214.049 91.7026ZM221.443 104.351L239.252 103.306L239.19 102.248L221.38 103.293L221.443 104.351ZM235.299 98.7695L230.667 99.0414L230.608 98.0232L235.24 97.7513L235.299 98.7695ZM235.411 100.666L230.779 100.938L230.717 99.88L235.349 99.6081L235.411 100.666ZM224.907 100.221L229.339 99.9608L229.401 101.019L224.969 101.279L224.907 100.221ZM224.798 98.3642L229.23 98.104L229.29 99.1223L224.857 99.3824L224.798 98.3642ZM223.33 97.5889L223.601 102.221L236.959 101.437L236.687 96.8049L223.33 97.5889ZM230.19 90.2342L234.763 89.9659L234.827 91.064L230.255 91.3323L230.19 90.2342ZM230.076 88.2776L234.648 88.0092L234.708 89.0275L230.135 89.2958L230.076 88.2776ZM230.485 95.2456L230.424 94.2074L237.252 93.8066L237.197 92.8682L230.369 93.269L230.309 92.2508L236.358 91.8957L236.24 89.8791L238.396 89.7526L238.341 88.8142L236.185 88.9408L236.071 87.0041L230.022 87.3592L229.949 86.1213L228.472 86.208L228.544 87.4459L222.614 87.794L222.668 88.7124L228.598 88.3643L228.658 89.3826L220.632 89.8537L220.687 90.7921L228.713 90.3209L228.777 91.4191L222.728 91.7741L222.782 92.6926L228.831 92.3375L228.891 93.3557L222.362 93.7389L222.417 94.6773L228.946 94.2941L229.007 95.3323L220.941 95.8058L221.002 96.844L238.811 95.7986L238.75 94.7604L230.485 95.2456ZM248.855 96.9321L250.492 96.836C249.777 93.8728 254.513 92.9738 254.336 89.9589C254.201 87.6629 252.32 86.3308 249.505 86.4961C247.328 86.6238 245.825 87.6336 244.589 89.1086L245.726 90.0436C246.773 88.7601 248.035 88.0849 249.393 88.0052C251.429 87.8857 252.486 88.8254 252.567 90.203C252.701 92.4791 248.042 93.6541 248.855 96.9321ZM248.293 100.331C248.349 101.289 249.124 101.865 250.003 101.813C250.881 101.762 251.564 101.101 251.508 100.142C251.451 99.1838 250.697 98.627 249.819 98.6786C248.94 98.7302 248.237 99.3725 248.293 100.331Z" fill="#06102B"/>
<path fill-rule="evenodd" clip-rule="evenodd" d="M239.758 28.6609C237.943 23.1565 238.164 17.755 240.854 13.4011C247.179 3.1613 264.761 2.59401 280.124 12.1341C295.488 21.6741 302.815 37.7089 296.49 47.9487C290.165 58.1886 272.582 58.7559 257.219 49.2158C251.18 45.4662 246.384 40.7133 243.169 35.7033C239.233 35.9265 235.767 36.0584 234.095 35.8114C231.295 35.3978 234.835 32.286 239.758 28.6609Z" fill="#151F3F"/>
<path d="M240.854 13.4011L240.534 13.2035L240.854 13.4011ZM239.758 28.6609L240.115 28.5431L240.201 28.8021L239.981 28.9638L239.758 28.6609ZM280.124 12.1341L280.323 11.8146L280.124 12.1341ZM257.219 49.2158L257.021 49.5353L257.219 49.2158ZM243.169 35.7033L243.148 35.3279L243.367 35.3154L243.485 35.5002L243.169 35.7033ZM241.173 13.5988C238.557 17.8343 238.325 23.1143 240.115 28.5431L239.401 28.7787C237.561 23.1986 237.771 17.6757 240.534 13.2035L241.173 13.5988ZM279.926 12.4536C272.298 7.71718 264.134 5.49946 257.112 5.72604C250.086 5.95272 244.249 8.61954 241.173 13.5988L240.534 13.2035C243.783 7.94289 249.9 5.20614 257.087 4.97424C264.278 4.74223 272.587 7.0109 280.323 11.8146L279.926 12.4536ZM296.17 47.7511C299.246 42.7716 299.026 36.3434 296.098 29.9353C293.172 23.5303 287.554 17.19 279.926 12.4536L280.323 11.8146C288.059 16.6182 293.786 23.0654 296.782 29.6227C299.777 36.177 300.059 42.8861 296.81 48.1464L296.17 47.7511ZM257.417 48.8963C265.045 53.6327 273.209 55.8504 280.232 55.6238C287.257 55.3972 293.094 52.7303 296.17 47.7511L296.81 48.1464C293.56 53.407 287.443 56.1437 280.256 56.3756C273.065 56.6076 264.756 54.339 257.021 49.5353L257.417 48.8963ZM243.485 35.5002C246.668 40.4596 251.423 45.174 257.417 48.8963L257.021 49.5353C250.938 45.7585 246.099 40.9671 242.852 35.9064L243.485 35.5002ZM234.15 35.4394C235.774 35.6794 239.194 35.552 243.148 35.3279L243.19 36.0788C239.271 36.301 235.759 36.4374 234.04 36.1835L234.15 35.4394ZM239.981 28.9638C237.516 30.7787 235.431 32.4417 234.31 33.6916C234.032 34.002 233.822 34.2771 233.682 34.5143C233.539 34.7565 233.486 34.9299 233.482 35.0434C233.479 35.1335 233.503 35.1883 233.57 35.2427C233.656 35.3129 233.83 35.3921 234.15 35.4394L234.04 36.1835C233.66 36.1273 233.331 36.0188 233.095 35.8256C232.838 35.6164 232.718 35.332 232.73 35.0155C232.741 34.7224 232.863 34.4221 233.034 34.1318C233.209 33.8365 233.453 33.5204 233.75 33.1894C234.93 31.8736 237.077 30.1682 239.535 28.3581L239.981 28.9638Z" fill="url(#paint0_linear_114_24264)"/>
<path d="M266.995 34.0261C269.214 32.0029 273.923 37.6847 277.047 34.0023C279.266 31.3869 277.599 28.4336 273.71 25.1343C269.873 21.8787 266.292 20.3792 263.051 24.1991L266.148 26.827C267.608 25.1063 269.166 25.747 271.678 27.8785C273.898 29.7618 274.344 30.9099 273.658 31.7187C271.789 33.9212 267.41 27.572 264.052 31.5296L266.995 34.0261ZM262.841 32.9578L260.884 35.2636L263.827 37.76L265.783 35.4543L262.841 32.9578Z" fill="white"/>
<path d="M195.543 15.0545C195.693 14.8486 196.001 14.8486 196.151 15.0545L198.122 17.7565C198.392 18.1267 198.86 18.2968 199.305 18.1868L202.552 17.3842C202.799 17.323 203.034 17.5205 203.017 17.7748L202.791 21.1119C202.759 21.5691 203.008 21.9997 203.42 22.2014L206.423 23.6737C206.652 23.7859 206.705 24.0884 206.528 24.2721L204.21 26.6829C203.892 27.0132 203.806 27.5028 203.991 27.9218L205.346 30.9802C205.449 31.2132 205.295 31.4793 205.042 31.5064L201.716 31.8628C201.26 31.9116 200.879 32.2312 200.752 32.6715L199.824 35.8848C199.753 36.1297 199.464 36.2347 199.253 36.0926L196.476 34.2278C196.096 33.9724 195.598 33.9724 195.218 34.2278L192.441 36.0926C192.23 36.2347 191.941 36.1297 191.87 35.8848L190.942 32.6715C190.815 32.2312 190.434 31.9116 189.978 31.8628L186.652 31.5064C186.399 31.4793 186.245 31.2132 186.349 30.9802L187.703 27.9218C187.888 27.5028 187.802 27.0132 187.484 26.6829L185.166 24.2721C184.989 24.0884 185.042 23.7859 185.271 23.6737L188.275 22.2014C188.686 21.9997 188.935 21.5691 188.904 21.1119L188.677 17.7748C188.66 17.5205 188.895 17.323 189.142 17.3842L192.39 18.1868C192.834 18.2968 193.302 18.1267 193.572 17.7565L195.543 15.0545Z" stroke="white" stroke-width="0.752193"/>
<path d="M52.4748 30.9339C51.9765 24.3578 56.4148 18.4254 62.8641 17.0472L134.489 1.74117C145.11 -0.528505 155.303 7.06487 156.168 17.8911C156.959 27.789 149.576 36.4539 139.678 37.2446L66.6686 43.0777C59.3907 43.6591 53.0265 38.2142 52.4748 30.9339Z" fill="#151F3F" stroke="url(#paint1_linear_114_24264)" stroke-width="0.752193"/>
<defs>
<filter id="filter0_d_114_24264" x="0.729539" y="58.8685" width="277.842" height="110.302" filterUnits="userSpaceOnUse" color-interpolation-filters="sRGB">
<feFlood flood-opacity="0" result="BackgroundImageFix"/>
<feColorMatrix in="SourceAlpha" type="matrix" values="0 0 0 0 0 0 0 0 0 0 0 0 0 0 0 0 0 0 127 0" result="hardAlpha"/>
<feOffset/>
<feGaussianBlur stdDeviation="2.4813"/>
<feComposite in2="hardAlpha" operator="out"/>
<feColorMatrix type="matrix" values="0 0 0 0 0.615686 0 0 0 0 0.643137 0 0 0 0 1 0 0 0 0.6 0"/>
<feBlend mode="normal" in2="BackgroundImageFix" result="effect1_dropShadow_114_24264"/>
<feBlend mode="normal" in="SourceGraphic" in2="effect1_dropShadow_114_24264" result="shape"/>
</filter>
<linearGradient id="paint0_linear_114_24264" x1="300.372" y1="14.3547" x2="228.214" y2="21.6318" gradientUnits="userSpaceOnUse">
<stop stop-color="#313A65"/>
<stop offset="1" stop-color="#313A65" stop-opacity="0"/>
</linearGradient>
<linearGradient id="paint1_linear_114_24264" x1="53.8512" y1="7.63272" x2="153.691" y2="47.0762" gradientUnits="userSpaceOnUse">
<stop stop-color="#313A65"/>
<stop offset="1" stop-color="#313A65" stop-opacity="0"/>
</linearGradient>
</defs>
</svg>
