<svg width="26" height="26" viewBox="0 0 26 26" fill="none" xmlns="http://www.w3.org/2000/svg">
<path d="M12.3483 1.106C12.6226 0.364713 13.671 0.364713 13.9453 1.106L16.8054 8.83525C16.8917 9.06831 17.0754 9.25206 17.3085 9.3383L25.0377 12.1984C25.779 12.4727 25.779 13.5211 25.0377 13.7954L17.3085 16.6555C17.0754 16.7418 16.8917 16.9255 16.8054 17.1586L13.9453 24.8878C13.671 25.6291 12.6226 25.6291 12.3483 24.8878L9.4882 17.1586C9.40196 16.9255 9.21821 16.7418 8.98515 16.6555L1.2559 13.7954C0.514615 13.5211 0.514616 12.4727 1.2559 12.1984L8.98515 9.3383C9.21821 9.25206 9.40196 9.06831 9.4882 8.83525L12.3483 1.106Z" fill="url(#paint0_linear_111_35573)"/>
<defs>
<linearGradient id="paint0_linear_111_35573" x1="13.1468" y1="-1.052" x2="13.1468" y2="27.0458" gradientUnits="userSpaceOnUse">
<stop stop-color="#9FA6FF"/>
<stop offset="1" stop-color="#55FFAD"/>
</linearGradient>
</defs>
</svg>
